<svg width="181" height="148" viewBox="0 0 181 148" fill="none" xmlns="http://www.w3.org/2000/svg">
  <path d="M15.069 146.469C17.3847 146.469 19.2619 144.592 19.2619 142.276C19.2619 139.96 17.3847 138.083 15.069 138.083C12.7533 138.083 10.8761 139.96 10.8761 142.276C10.8761 144.592 12.7533 146.469 15.069 146.469Z" stroke="#BF9001" stroke-opacity="0.2" stroke-width="1.18" stroke-linecap="round" stroke-linejoin="round"/>
  <path d="M41.8758 146.469C44.1915 146.469 46.0686 144.592 46.0686 142.276C46.0686 139.96 44.1915 138.083 41.8758 138.083C39.5601 138.083 37.6829 139.96 37.6829 142.276C37.6829 144.592 39.5601 146.469 41.8758 146.469Z" stroke="#BF9001" stroke-opacity="0.2" stroke-width="1.18" stroke-linecap="round" stroke-linejoin="round"/>
  <path d="M68.6672 146.469C70.9829 146.469 72.8602 144.592 72.8602 142.276C72.8602 139.96 70.9829 138.083 68.6672 138.083C66.3516 138.083 64.4743 139.96 64.4743 142.276C64.4743 144.592 66.3516 146.469 68.6672 146.469Z" stroke="#BF9001" stroke-opacity="0.2" stroke-width="1.18" stroke-linecap="round" stroke-linejoin="round"/>
  <path d="M95.474 146.469C97.7897 146.469 99.6669 144.592 99.6669 142.276C99.6669 139.96 97.7897 138.083 95.474 138.083C93.1583 138.083 91.281 139.96 91.281 142.276C91.281 144.592 93.1583 146.469 95.474 146.469Z" stroke="#BF9001" stroke-opacity="0.2" stroke-width="1.18" stroke-linecap="round" stroke-linejoin="round"/>
  <path d="M122.28 146.469C124.596 146.469 126.473 144.592 126.473 142.276C126.473 139.96 124.596 138.083 122.28 138.083C119.964 138.083 118.087 139.96 118.087 142.276C118.087 144.592 119.964 146.469 122.28 146.469Z" stroke="#BF9001" stroke-opacity="0.2" stroke-width="1.18" stroke-linecap="round" stroke-linejoin="round"/>
  <path d="M149.072 146.469C151.388 146.469 153.265 144.592 153.265 142.276C153.265 139.96 151.388 138.083 149.072 138.083C146.756 138.083 144.879 139.96 144.879 142.276C144.879 144.592 146.756 146.469 149.072 146.469Z" stroke="#BF9001" stroke-opacity="0.2" stroke-width="1.18" stroke-linecap="round" stroke-linejoin="round"/>
  <path d="M180.142 142.276C180.142 143.119 179.892 143.944 179.424 144.645C178.955 145.346 178.289 145.892 177.51 146.215C176.731 146.538 175.874 146.622 175.047 146.458C174.219 146.293 173.46 145.887 172.863 145.291C172.267 144.695 171.861 143.935 171.696 143.108C171.532 142.281 171.616 141.423 171.939 140.644C172.262 139.865 172.808 139.199 173.51 138.73C174.211 138.262 175.035 138.012 175.878 138.012C176.441 138.002 177 138.106 177.522 138.317C178.043 138.528 178.517 138.841 178.915 139.239C179.313 139.637 179.627 140.111 179.837 140.633C180.048 141.154 180.152 141.713 180.142 142.276V142.276Z" stroke="#BF9001" stroke-opacity="0.2" stroke-width="1.18" stroke-linecap="round" stroke-linejoin="round"/>
  <path d="M15.069 121.17C17.3847 121.17 19.2619 119.292 19.2619 116.977C19.2619 114.661 17.3847 112.784 15.069 112.784C12.7533 112.784 10.8761 114.661 10.8761 116.977C10.8761 119.292 12.7533 121.17 15.069 121.17Z" stroke="#BF9001" stroke-opacity="0.2" stroke-width="1.18" stroke-linecap="round" stroke-linejoin="round"/>
  <path d="M41.8758 121.17C44.1915 121.17 46.0686 119.292 46.0686 116.977C46.0686 114.661 44.1915 112.784 41.8758 112.784C39.5601 112.784 37.6829 114.661 37.6829 116.977C37.6829 119.292 39.5601 121.17 41.8758 121.17Z" stroke="#BF9001" stroke-opacity="0.2" stroke-width="1.18" stroke-linecap="round" stroke-linejoin="round"/>
  <path d="M68.6672 121.17C70.9829 121.17 72.8602 119.292 72.8602 116.977C72.8602 114.661 70.9829 112.784 68.6672 112.784C66.3516 112.784 64.4743 114.661 64.4743 116.977C64.4743 119.292 66.3516 121.17 68.6672 121.17Z" stroke="#BF9001" stroke-opacity="0.2" stroke-width="1.18" stroke-linecap="round" stroke-linejoin="round"/>
  <path d="M95.474 121.17C97.7897 121.17 99.6669 119.292 99.6669 116.977C99.6669 114.661 97.7897 112.784 95.474 112.784C93.1583 112.784 91.281 114.661 91.281 116.977C91.281 119.292 93.1583 121.17 95.474 121.17Z" stroke="#BF9001" stroke-opacity="0.2" stroke-width="1.18" stroke-linecap="round" stroke-linejoin="round"/>
  <path d="M122.28 121.17C124.596 121.17 126.473 119.292 126.473 116.977C126.473 114.661 124.596 112.784 122.28 112.784C119.964 112.784 118.087 114.661 118.087 116.977C118.087 119.292 119.964 121.17 122.28 121.17Z" stroke="#BF9001" stroke-opacity="0.2" stroke-width="1.18" stroke-linecap="round" stroke-linejoin="round"/>
  <path d="M149.072 121.17C151.388 121.17 153.265 119.292 153.265 116.977C153.265 114.661 151.388 112.784 149.072 112.784C146.756 112.784 144.879 114.661 144.879 116.977C144.879 119.292 146.756 121.17 149.072 121.17Z" stroke="#BF9001" stroke-opacity="0.2" stroke-width="1.18" stroke-linecap="round" stroke-linejoin="round"/>
  <path d="M180.142 116.976C180.142 117.82 179.892 118.644 179.424 119.345C178.955 120.046 178.289 120.593 177.51 120.916C176.731 121.238 175.874 121.323 175.047 121.158C174.219 120.994 173.46 120.588 172.863 119.991C172.267 119.395 171.861 118.635 171.696 117.808C171.532 116.981 171.616 116.124 171.939 115.345C172.262 114.565 172.808 113.899 173.51 113.431C174.211 112.962 175.035 112.712 175.878 112.712C176.442 112.701 177.001 112.803 177.524 113.013C178.046 113.223 178.521 113.537 178.919 113.935C179.318 114.334 179.631 114.808 179.842 115.331C180.052 115.853 180.154 116.413 180.142 116.976V116.976Z" stroke="#BF9001" stroke-opacity="0.2" stroke-width="1.18" stroke-linecap="round" stroke-linejoin="round"/>
  <path d="M15.069 95.8697C17.3847 95.8697 19.2619 93.9925 19.2619 91.6768C19.2619 89.3611 17.3847 87.4839 15.069 87.4839C12.7533 87.4839 10.8761 89.3611 10.8761 91.6768C10.8761 93.9925 12.7533 95.8697 15.069 95.8697Z" stroke="#BF9001" stroke-opacity="0.2" stroke-width="1.18" stroke-linecap="round" stroke-linejoin="round"/>
  <path d="M41.8758 95.8697C44.1915 95.8697 46.0686 93.9925 46.0686 91.6768C46.0686 89.3611 44.1915 87.4839 41.8758 87.4839C39.5601 87.4839 37.6829 89.3611 37.6829 91.6768C37.6829 93.9925 39.5601 95.8697 41.8758 95.8697Z" stroke="#BF9001" stroke-opacity="0.2" stroke-width="1.18" stroke-linecap="round" stroke-linejoin="round"/>
  <path d="M68.6672 95.8697C70.9829 95.8697 72.8602 93.9925 72.8602 91.6768C72.8602 89.3611 70.9829 87.4839 68.6672 87.4839C66.3516 87.4839 64.4743 89.3611 64.4743 91.6768C64.4743 93.9925 66.3516 95.8697 68.6672 95.8697Z" stroke="#BF9001" stroke-opacity="0.2" stroke-width="1.18" stroke-linecap="round" stroke-linejoin="round"/>
  <path d="M95.474 95.8697C97.7897 95.8697 99.6669 93.9925 99.6669 91.6768C99.6669 89.3611 97.7897 87.4839 95.474 87.4839C93.1583 87.4839 91.281 89.3611 91.281 91.6768C91.281 93.9925 93.1583 95.8697 95.474 95.8697Z" stroke="#BF9001" stroke-opacity="0.2" stroke-width="1.18" stroke-linecap="round" stroke-linejoin="round"/>
  <path d="M122.28 95.8697C124.596 95.8697 126.473 93.9925 126.473 91.6768C126.473 89.3611 124.596 87.4839 122.28 87.4839C119.964 87.4839 118.087 89.3611 118.087 91.6768C118.087 93.9925 119.964 95.8697 122.28 95.8697Z" stroke="#BF9001" stroke-opacity="0.2" stroke-width="1.18" stroke-linecap="round" stroke-linejoin="round"/>
  <path d="M149.072 95.8697C151.388 95.8697 153.265 93.9925 153.265 91.6768C153.265 89.3611 151.388 87.4839 149.072 87.4839C146.756 87.4839 144.879 89.3611 144.879 91.6768C144.879 93.9925 146.756 95.8697 149.072 95.8697Z" stroke="#BF9001" stroke-opacity="0.2" stroke-width="1.18" stroke-linecap="round" stroke-linejoin="round"/>
  <path d="M180.142 91.6767C180.142 92.52 179.892 93.3444 179.424 94.0456C178.955 94.7469 178.289 95.2934 177.51 95.6161C176.731 95.9388 175.874 96.0233 175.047 95.8588C174.219 95.6942 173.46 95.2881 172.863 94.6918C172.267 94.0955 171.861 93.3357 171.696 92.5086C171.532 91.6814 171.616 90.8241 171.939 90.045C172.262 89.2658 172.808 88.5999 173.51 88.1313C174.211 87.6628 175.035 87.4127 175.878 87.4127C176.441 87.4031 177 87.5068 177.522 87.7177C178.043 87.9286 178.517 88.2423 178.915 88.6402C179.313 89.0381 179.627 89.512 179.837 90.0336C180.048 90.5553 180.152 91.1141 180.142 91.6767V91.6767Z" stroke="#BF9001" stroke-opacity="0.2" stroke-width="1.18" stroke-linecap="round" stroke-linejoin="round"/>
  <path d="M19.248 66.3628C19.2508 67.1933 19.007 68.0059 18.5473 68.6976C18.0877 69.3893 17.433 69.9289 16.6662 70.248C15.8995 70.5671 15.0553 70.6514 14.2407 70.49C13.426 70.3287 12.6775 69.9291 12.0903 69.3418C11.503 68.7546 11.1035 68.0062 10.9421 67.1915C10.7808 66.3768 10.865 65.5326 11.1841 64.7659C11.5032 63.9992 12.0428 63.3445 12.7345 62.8848C13.4262 62.4252 14.2388 62.1813 15.0693 62.1841C16.1764 62.1879 17.2371 62.6293 18.02 63.4122C18.8028 64.195 19.2443 65.2557 19.248 66.3628V66.3628Z" stroke="#BF9001" stroke-opacity="0.2" stroke-width="1.18" stroke-linecap="round" stroke-linejoin="round"/>
  <path d="M46.054 66.3628C46.0569 67.1927 45.8134 68.0047 45.3544 68.6961C44.8954 69.3875 44.2415 69.9271 43.4756 70.2467C42.7097 70.5662 41.8662 70.6512 41.0519 70.4911C40.2376 70.3309 39.4892 69.9327 38.9014 69.3469C38.3136 68.761 37.9128 68.014 37.7499 67.2002C37.587 66.3865 37.6691 65.5427 37.986 64.7757C38.303 64.0088 38.8404 63.3531 39.5302 62.8917C40.22 62.4304 41.0313 62.1841 41.8612 62.1841C42.9708 62.1841 44.0351 62.6239 44.821 63.4071C45.6069 64.1904 46.0503 65.2532 46.054 66.3628Z" stroke="#BF9001" stroke-opacity="0.2" stroke-width="1.18" stroke-linecap="round" stroke-linejoin="round"/>
  <path d="M72.8601 66.3628C72.863 67.1927 72.6194 68.0047 72.1604 68.6961C71.7014 69.3875 71.0475 69.9271 70.2816 70.2467C69.5157 70.5662 68.6722 70.6512 67.8579 70.4911C67.0436 70.3309 66.2953 69.9327 65.7074 69.3469C65.1196 68.761 64.7188 68.014 64.5559 67.2002C64.393 66.3865 64.4752 65.5427 64.7921 64.7757C65.1091 64.0088 65.6465 63.3531 66.3363 62.8917C67.0261 62.4304 67.8373 62.1841 68.6672 62.1841C69.7768 62.1841 70.8411 62.6239 71.6271 63.4071C72.413 64.1904 72.8564 65.2532 72.8601 66.3628V66.3628Z" stroke="#BF9001" stroke-opacity="0.2" stroke-width="1.18" stroke-linecap="round" stroke-linejoin="round"/>
  <path d="M99.6523 66.3628C99.6551 67.1933 99.4112 68.0059 98.9516 68.6976C98.492 69.3893 97.8372 69.9289 97.0705 70.248C96.3038 70.5671 95.4595 70.6514 94.6449 70.49C93.8302 70.3287 93.0818 69.9291 92.4946 69.3418C91.9073 68.7546 91.5077 68.0062 91.3463 67.1915C91.185 66.3768 91.2692 65.5326 91.5884 64.7659C91.9075 63.9992 92.4471 63.3445 93.1388 62.8848C93.8305 62.4252 94.6431 62.1813 95.4736 62.1841C96.5818 62.1841 97.6447 62.6244 98.4284 63.408C99.2121 64.1917 99.6523 65.2545 99.6523 66.3628Z" stroke="#BF9001" stroke-opacity="0.2" stroke-width="1.18" stroke-linecap="round" stroke-linejoin="round"/>
  <path d="M126.458 66.3628C126.461 67.1933 126.217 68.0059 125.758 68.6976C125.298 69.3893 124.643 69.9289 123.876 70.248C123.11 70.5671 122.266 70.6514 121.451 70.49C120.636 70.3287 119.888 69.9291 119.301 69.3418C118.713 68.7546 118.314 68.0062 118.152 67.1915C117.991 66.3768 118.075 65.5326 118.394 64.7659C118.713 63.9992 119.253 63.3445 119.945 62.8848C120.637 62.4252 121.449 62.1813 122.28 62.1841C123.387 62.1879 124.447 62.6293 125.23 63.4122C126.013 64.195 126.455 65.2557 126.458 66.3628Z" stroke="#BF9001" stroke-opacity="0.2" stroke-width="1.18" stroke-linecap="round" stroke-linejoin="round"/>
  <path d="M153.265 66.3629C153.268 67.1897 153.026 67.9989 152.57 68.6886C152.114 69.3784 151.464 69.918 150.703 70.2395C149.941 70.561 149.101 70.6501 148.289 70.4956C147.476 70.3411 146.728 69.9499 146.137 69.3711C145.547 68.7924 145.141 68.052 144.97 67.243C144.799 66.434 144.871 65.5926 145.177 64.8245C145.483 64.0564 146.009 63.3959 146.69 62.9261C147.37 62.4563 148.174 62.1982 149.001 62.1842C149.556 62.1748 150.108 62.2758 150.624 62.4814C151.14 62.687 151.61 62.9931 152.007 63.3819C152.404 63.7707 152.719 64.2344 152.935 64.7461C153.151 65.2579 153.263 65.8074 153.265 66.3629V66.3629Z" stroke="#BF9001" stroke-opacity="0.2" stroke-width="1.18" stroke-linecap="round" stroke-linejoin="round"/>
  <path d="M180.142 66.3629C180.159 67.2097 179.924 68.0423 179.466 68.7546C179.007 69.467 178.348 70.0267 177.57 70.3626C176.793 70.6984 175.933 70.7951 175.1 70.6404C174.267 70.4856 173.5 70.0864 172.895 69.4936C172.29 68.9008 171.875 68.1413 171.704 67.3119C171.532 66.4825 171.611 65.6209 171.931 64.8367C172.251 64.0526 172.798 63.3816 173.501 62.9092C174.204 62.4367 175.031 62.1844 175.878 62.1842C176.434 62.1748 176.985 62.2758 177.501 62.4814C178.017 62.687 178.487 62.9931 178.884 63.3819C179.281 63.7707 179.596 64.2344 179.812 64.7461C180.028 65.2579 180.14 65.8074 180.142 66.3629V66.3629Z" stroke="#BF9001" stroke-opacity="0.2" stroke-width="1.18" stroke-linecap="round" stroke-linejoin="round"/>
  <path d="M19.2481 41.0919C19.2481 41.9217 19.0018 42.733 18.5405 43.4228C18.0791 44.1126 17.4235 44.65 16.6565 44.967C15.8895 45.2839 15.0457 45.3661 14.232 45.2031C13.4182 45.0402 12.6711 44.6395 12.0853 44.0516C11.4995 43.4638 11.1013 42.7154 10.9411 41.9011C10.7809 41.0868 10.866 40.2433 11.1855 39.4774C11.5051 38.7115 12.0446 38.0577 12.736 37.5987C13.4274 37.1397 14.2395 36.8961 15.0694 36.8989C15.6193 36.8989 16.1639 37.0075 16.6718 37.2184C17.1798 37.4293 17.641 37.7383 18.0292 38.1279C18.4174 38.5174 18.725 38.9798 18.9341 39.4884C19.1433 39.997 19.25 40.5419 19.2481 41.0919V41.0919Z" stroke="#BF9001" stroke-opacity="0.2" stroke-width="1.18" stroke-linecap="round" stroke-linejoin="round"/>
  <path d="M46.054 41.0918C46.054 41.9211 45.8082 42.7318 45.3474 43.4213C44.8867 44.1108 44.2319 44.6482 43.4657 44.9656C42.6996 45.2829 41.8565 45.366 41.0431 45.2042C40.2298 45.0424 39.4827 44.6431 38.8963 44.0567C38.3099 43.4703 37.9106 42.7232 37.7489 41.9098C37.5871 41.0965 37.6701 40.2534 37.9874 39.4873C38.3048 38.7211 38.8421 38.0663 39.5317 37.6056C40.2212 37.1448 41.0319 36.8989 41.8612 36.8989C42.4118 36.8989 42.957 37.0074 43.4657 37.2181C43.9744 37.4288 44.4366 37.7377 44.826 38.127C45.2153 38.5163 45.5242 38.9786 45.7349 39.4873C45.9456 39.996 46.054 40.5412 46.054 41.0918V41.0918Z" stroke="#BF9001" stroke-opacity="0.2" stroke-width="1.18" stroke-linecap="round" stroke-linejoin="round"/>
  <path d="M72.8602 41.0918C72.8602 41.9211 72.6142 42.7318 72.1535 43.4213C71.6928 44.1108 71.0379 44.6482 70.2718 44.9656C69.5056 45.2829 68.6626 45.366 67.8492 45.2042C67.0359 45.0424 66.2887 44.6431 65.7023 44.0567C65.1159 43.4703 64.7167 42.7232 64.5549 41.9098C64.3931 41.0965 64.4761 40.2534 64.7934 39.4873C65.1108 38.7211 65.6483 38.0663 66.3378 37.6056C67.0273 37.1448 67.8379 36.8989 68.6672 36.8989C69.7793 36.8989 70.8457 37.3407 71.632 38.127C72.4183 38.9133 72.8602 39.9798 72.8602 41.0918V41.0918Z" stroke="#BF9001" stroke-opacity="0.2" stroke-width="1.18" stroke-linecap="round" stroke-linejoin="round"/>
  <path d="M99.6523 41.0919C99.6523 41.9217 99.406 42.733 98.9447 43.4228C98.4833 44.1126 97.8276 44.65 97.0606 44.967C96.2936 45.2839 95.4499 45.3661 94.6362 45.2031C93.8224 45.0402 93.0753 44.6395 92.4895 44.0516C91.9037 43.4638 91.5055 42.7154 91.3453 41.9011C91.1851 41.0868 91.2702 40.2433 91.5897 39.4774C91.9093 38.7115 92.4489 38.0577 93.1402 37.5987C93.8316 37.1397 94.6437 36.8961 95.4736 36.8989C96.0235 36.8989 96.5681 37.0075 97.076 37.2184C97.584 37.4293 98.0452 37.7383 98.4334 38.1279C98.8217 38.5174 99.1292 38.9798 99.3383 39.4884C99.5475 39.997 99.6542 40.5419 99.6523 41.0919V41.0919Z" stroke="#BF9001" stroke-opacity="0.2" stroke-width="1.18" stroke-linecap="round" stroke-linejoin="round"/>
  <path d="M126.458 41.0919C126.458 41.9217 126.212 42.733 125.751 43.4228C125.289 44.1126 124.634 44.65 123.867 44.967C123.1 45.2839 122.256 45.3661 121.442 45.2031C120.628 45.0402 119.881 44.6395 119.296 44.0516C118.71 43.4638 118.312 42.7154 118.151 41.9011C117.991 41.0868 118.076 40.2433 118.396 39.4774C118.715 38.7115 119.255 38.0577 119.946 37.5987C120.638 37.1397 121.45 36.8961 122.28 36.8989C122.83 36.8989 123.374 37.0075 123.882 37.2184C124.39 37.4293 124.851 37.7383 125.239 38.1279C125.628 38.5174 125.935 38.9798 126.144 39.4884C126.353 39.997 126.46 40.5419 126.458 41.0919V41.0919Z" stroke="#BF9001" stroke-opacity="0.2" stroke-width="1.18" stroke-linecap="round" stroke-linejoin="round"/>
  <path d="M153.265 41.0915C153.265 41.9177 153.021 42.7255 152.563 43.4134C152.105 44.1013 151.455 44.6386 150.693 44.9579C149.931 45.2773 149.091 45.3644 148.28 45.2083C147.469 45.0522 146.721 44.6598 146.132 44.0805C145.543 43.5012 145.138 42.7608 144.969 41.9522C144.799 41.1435 144.872 40.3028 145.178 39.5355C145.485 38.7683 146.011 38.1086 146.691 37.6395C147.371 37.1703 148.175 36.9126 149.001 36.8986C149.558 36.8891 150.11 36.9906 150.627 37.1971C151.144 37.4036 151.615 37.7109 152.012 38.1012C152.409 38.4915 152.724 38.9569 152.939 39.4703C153.154 39.9837 153.265 40.5348 153.265 41.0915V41.0915Z" stroke="#BF9001" stroke-opacity="0.2" stroke-width="1.18" stroke-linecap="round" stroke-linejoin="round"/>
  <path d="M180.143 41.0915C180.157 41.9377 179.919 42.769 179.459 43.4795C178.999 44.1899 178.338 44.7475 177.56 45.0812C176.782 45.4148 175.923 45.5095 175.091 45.3531C174.259 45.1966 173.493 44.7963 172.889 44.2029C172.286 43.6095 171.873 42.8499 171.702 42.0209C171.532 41.1919 171.612 40.3309 171.933 39.5476C172.253 38.7643 172.8 38.0941 173.502 37.6224C174.205 37.1506 175.032 36.8987 175.879 36.8986C176.435 36.8891 176.988 36.9906 177.505 37.1971C178.022 37.4036 178.493 37.7109 178.889 38.1012C179.286 38.4915 179.602 38.9569 179.817 39.4703C180.032 39.9837 180.143 40.5348 180.143 41.0915Z" stroke="#BF9001" stroke-opacity="0.2" stroke-width="1.18" stroke-linecap="round" stroke-linejoin="round"/>
  <path d="M19.2481 15.7918C19.2341 16.6185 18.976 17.4227 18.5063 18.1031C18.0365 18.7835 17.376 19.3098 16.6079 19.6158C15.8398 19.9219 14.9983 19.994 14.1894 19.8231C13.3804 19.6523 12.6399 19.246 12.0612 18.6555C11.4825 18.065 11.0913 17.3165 10.9368 16.5042C10.7823 15.692 10.8714 14.8521 11.1929 14.0904C11.5144 13.3286 12.054 12.6789 12.7437 12.223C13.4335 11.767 14.2426 11.5252 15.0694 11.5279C15.6254 11.5277 16.1759 11.6386 16.6886 11.8539C17.2012 12.0692 17.6656 12.3847 18.0548 12.7818C18.444 13.1789 18.75 13.6496 18.9549 14.1665C19.1598 14.6834 19.2595 15.2359 19.2481 15.7918V15.7918Z" stroke="#BF9001" stroke-opacity="0.2" stroke-width="1.18" stroke-linecap="round" stroke-linejoin="round"/>
  <path d="M46.0542 15.7918C46.0402 16.6179 45.7825 17.4215 45.3133 18.1016C44.8442 18.7817 44.1845 19.3081 43.4172 19.6145C42.6499 19.921 41.8092 19.994 41.0006 19.8243C40.192 19.6546 39.4515 19.2497 38.8722 18.6606C38.2929 18.0715 37.9006 17.3243 37.7445 16.513C37.5884 15.7016 37.6755 14.8623 37.9948 14.1002C38.3142 13.3382 38.8515 12.6875 39.5394 12.2299C40.2273 11.7722 41.0351 11.528 41.8613 11.5279C42.4185 11.5258 42.9705 11.6353 43.4848 11.8498C43.9991 12.0642 44.4652 12.3794 44.8559 12.7767C45.2466 13.174 45.5539 13.6454 45.7597 14.1632C45.9655 14.681 46.0656 15.2348 46.0542 15.7918V15.7918Z" stroke="#BF9001" stroke-opacity="0.2" stroke-width="1.18" stroke-linecap="round" stroke-linejoin="round"/>
  <path d="M72.8602 15.7918C72.8462 16.6179 72.5884 17.4215 72.1193 18.1016C71.6501 18.7817 70.9905 19.3081 70.2232 19.6145C69.4559 19.921 68.6152 19.994 67.8066 19.8243C66.9979 19.6546 66.2575 19.2497 65.6782 18.6606C65.0989 18.0715 64.7066 17.3243 64.5505 16.513C64.3944 15.7016 64.4815 14.8623 64.8008 14.1002C65.1201 13.3382 65.6575 12.6875 66.3454 12.2299C67.0333 11.7722 67.8411 11.528 68.6673 11.5279C69.2245 11.5258 69.7765 11.6353 70.2908 11.8498C70.805 12.0642 71.2712 12.3794 71.6619 12.7767C72.0525 13.174 72.3598 13.6454 72.5656 14.1632C72.7714 14.681 72.8716 15.2348 72.8602 15.7918V15.7918Z" stroke="#BF9001" stroke-opacity="0.2" stroke-width="1.18" stroke-linecap="round" stroke-linejoin="round"/>
  <path d="M99.6524 15.7918C99.6383 16.6186 99.3802 17.4227 98.9105 18.1031C98.4407 18.7835 97.7802 19.3098 97.0121 19.6159C96.244 19.9219 95.4025 19.994 94.5936 19.8231C93.7846 19.6523 93.0441 19.246 92.4654 18.6555C91.8867 18.065 91.4955 17.3165 91.341 16.5042C91.1865 15.692 91.2756 14.8521 91.5971 14.0904C91.9186 13.3286 92.4582 12.6789 93.1479 12.223C93.8377 11.767 94.6468 11.5252 95.4736 11.5279C96.0302 11.5258 96.5815 11.6353 97.095 11.85C97.6085 12.0646 98.0739 12.38 98.4634 12.7775C98.853 13.175 99.1589 13.6465 99.3631 14.1643C99.5673 14.682 99.6657 15.2354 99.6524 15.7918V15.7918Z" stroke="#BF9001" stroke-opacity="0.2" stroke-width="1.18" stroke-linecap="round" stroke-linejoin="round"/>
  <path d="M126.458 15.7918C126.444 16.6185 126.186 17.4227 125.716 18.1031C125.247 18.7835 124.586 19.3098 123.818 19.6158C123.05 19.9219 122.209 19.994 121.4 19.8231C120.591 19.6523 119.85 19.246 119.272 18.6555C118.693 18.065 118.302 17.3165 118.147 16.5042C117.993 15.692 118.082 14.8521 118.403 14.0904C118.725 13.3286 119.264 12.6789 119.954 12.223C120.644 11.767 121.453 11.5252 122.28 11.5279C122.836 11.5277 123.386 11.6386 123.899 11.8539C124.411 12.0692 124.876 12.3847 125.265 12.7818C125.654 13.1789 125.96 13.6496 126.165 14.1665C126.37 14.6834 126.47 15.2359 126.458 15.7918V15.7918Z" stroke="#BF9001" stroke-opacity="0.2" stroke-width="1.18" stroke-linecap="round" stroke-linejoin="round"/>
  <path d="M153.265 15.7922C153.251 16.6153 152.995 17.416 152.529 18.0945C152.063 18.773 151.407 19.2994 150.644 19.6079C149.881 19.9164 149.044 19.9934 148.237 19.8293C147.431 19.6653 146.69 19.2674 146.108 18.6854C145.526 18.1033 145.128 17.3628 144.964 16.5561C144.8 15.7494 144.877 14.9123 145.186 14.1491C145.494 13.386 146.02 12.7305 146.699 12.2644C147.377 11.7983 148.178 11.5423 149.001 11.5282C149.564 11.5166 150.124 11.619 150.647 11.8291C151.169 12.0393 151.644 12.353 152.042 12.7513C152.44 13.1495 152.754 13.6242 152.964 14.1468C153.174 14.6694 153.277 15.2291 153.265 15.7922V15.7922Z" stroke="#BF9001" stroke-opacity="0.2" stroke-width="1.18" stroke-linecap="round" stroke-linejoin="round"/>
  <path d="M180.142 15.7922C180.142 16.6355 179.892 17.4599 179.424 18.1612C178.955 18.8624 178.289 19.4089 177.51 19.7316C176.731 20.0543 175.874 20.1388 175.047 19.9743C174.219 19.8097 173.46 19.4036 172.863 18.8073C172.267 18.211 171.861 17.4512 171.696 16.6241C171.532 15.7969 171.616 14.9396 171.939 14.1605C172.262 13.3813 172.808 12.7154 173.51 12.2468C174.211 11.7783 175.035 11.5282 175.878 11.5282C176.442 11.5166 177.001 11.619 177.524 11.8291C178.046 12.0393 178.521 12.353 178.919 12.7513C179.318 13.1495 179.631 13.6242 179.842 14.1468C180.052 14.6694 180.154 15.2291 180.142 15.7922V15.7922Z" stroke="#BF9001" stroke-opacity="0.2" stroke-width="1.18" stroke-linecap="round" stroke-linejoin="round"/>
</svg>
