<svg width="174" height="169" viewBox="0 0 174 169" fill="none" xmlns="http://www.w3.org/2000/svg">
  <path d="M9.52683 156.976C9.51282 157.803 9.25504 158.606 8.78589 159.286C8.31673 159.966 7.65714 160.493 6.88986 160.799C6.12258 161.106 5.28185 161.179 4.47324 161.009C3.66463 160.839 2.92415 160.434 2.34485 159.845C1.76555 159.256 1.37324 158.509 1.21713 157.698C1.06102 156.886 1.14807 156.047 1.46741 155.285C1.78674 154.523 2.32411 153.872 3.01201 153.414C3.6999 152.957 4.50767 152.713 5.3339 152.712C5.8911 152.71 6.44307 152.82 6.95735 153.034C7.47163 153.249 7.93782 153.564 8.32849 153.961C8.71917 154.359 9.02647 154.83 9.23226 155.348C9.43806 155.866 9.5382 156.419 9.52683 156.976V156.976Z" stroke="#BF9001" stroke-opacity="0.2" stroke-width="1.18" stroke-linecap="round" stroke-linejoin="round"/>
  <path d="M32.0689 161.17C34.3846 161.17 36.2619 159.292 36.2619 156.977C36.2619 154.661 34.3846 152.784 32.0689 152.784C29.7533 152.784 27.8761 154.661 27.8761 156.977C27.8761 159.292 29.7533 161.17 32.0689 161.17Z" stroke="#BF9001" stroke-opacity="0.2" stroke-width="1.18" stroke-linecap="round" stroke-linejoin="round"/>
  <path d="M58.8758 161.17C61.1915 161.17 63.0686 159.292 63.0686 156.977C63.0686 154.661 61.1915 152.784 58.8758 152.784C56.5601 152.784 54.6829 154.661 54.6829 156.977C54.6829 159.292 56.5601 161.17 58.8758 161.17Z" stroke="#BF9001" stroke-opacity="0.2" stroke-width="1.18" stroke-linecap="round" stroke-linejoin="round"/>
  <path d="M85.6672 161.17C87.9829 161.17 89.8602 159.292 89.8602 156.977C89.8602 154.661 87.9829 152.784 85.6672 152.784C83.3516 152.784 81.4743 154.661 81.4743 156.977C81.4743 159.292 83.3516 161.17 85.6672 161.17Z" stroke="#BF9001" stroke-opacity="0.2" stroke-width="1.18" stroke-linecap="round" stroke-linejoin="round"/>
  <path d="M112.474 161.17C114.79 161.17 116.667 159.292 116.667 156.977C116.667 154.661 114.79 152.784 112.474 152.784C110.158 152.784 108.281 154.661 108.281 156.977C108.281 159.292 110.158 161.17 112.474 161.17Z" stroke="#BF9001" stroke-opacity="0.2" stroke-width="1.18" stroke-linecap="round" stroke-linejoin="round"/>
  <path d="M139.28 161.17C141.596 161.17 143.473 159.292 143.473 156.977C143.473 154.661 141.596 152.784 139.28 152.784C136.964 152.784 135.087 154.661 135.087 156.977C135.087 159.292 136.964 161.17 139.28 161.17Z" stroke="#BF9001" stroke-opacity="0.2" stroke-width="1.18" stroke-linecap="round" stroke-linejoin="round"/>
  <path d="M166.072 161.17C168.388 161.17 170.265 159.292 170.265 156.977C170.265 154.661 168.388 152.784 166.072 152.784C163.756 152.784 161.879 154.661 161.879 156.977C161.879 159.292 163.756 161.17 166.072 161.17Z" stroke="#BF9001" stroke-opacity="0.2" stroke-width="1.18" stroke-linecap="round" stroke-linejoin="round"/>
  <path d="M9.52683 131.677C9.51282 132.503 9.25504 133.306 8.78589 133.986C8.31673 134.666 7.65714 135.193 6.88986 135.499C6.12258 135.806 5.28185 135.879 4.47324 135.709C3.66463 135.539 2.92415 135.134 2.34485 134.545C1.76555 133.956 1.37324 133.209 1.21713 132.398C1.06102 131.586 1.14807 130.747 1.46741 129.985C1.78674 129.223 2.32411 128.572 3.01201 128.115C3.6999 127.657 4.50767 127.413 5.3339 127.413C5.89055 127.413 6.44166 127.523 6.95505 127.738C7.46845 127.954 7.93386 128.269 8.32416 128.666C8.71445 129.063 9.02179 129.533 9.22827 130.05C9.43476 130.567 9.53626 131.12 9.52683 131.677V131.677Z" stroke="#BF9001" stroke-opacity="0.2" stroke-width="1.18" stroke-linecap="round" stroke-linejoin="round"/>
  <path d="M32.0689 135.87C34.3846 135.87 36.2619 133.992 36.2619 131.677C36.2619 129.361 34.3846 127.484 32.0689 127.484C29.7533 127.484 27.8761 129.361 27.8761 131.677C27.8761 133.992 29.7533 135.87 32.0689 135.87Z" stroke="#BF9001" stroke-opacity="0.2" stroke-width="1.18" stroke-linecap="round" stroke-linejoin="round"/>
  <path d="M58.8758 135.87C61.1915 135.87 63.0686 133.992 63.0686 131.677C63.0686 129.361 61.1915 127.484 58.8758 127.484C56.5601 127.484 54.6829 129.361 54.6829 131.677C54.6829 133.992 56.5601 135.87 58.8758 135.87Z" stroke="#BF9001" stroke-opacity="0.2" stroke-width="1.18" stroke-linecap="round" stroke-linejoin="round"/>
  <path d="M85.6672 135.87C87.9829 135.87 89.8602 133.992 89.8602 131.677C89.8602 129.361 87.9829 127.484 85.6672 127.484C83.3516 127.484 81.4743 129.361 81.4743 131.677C81.4743 133.992 83.3516 135.87 85.6672 135.87Z" stroke="#BF9001" stroke-opacity="0.2" stroke-width="1.18" stroke-linecap="round" stroke-linejoin="round"/>
  <path d="M112.474 135.87C114.79 135.87 116.667 133.992 116.667 131.677C116.667 129.361 114.79 127.484 112.474 127.484C110.158 127.484 108.281 129.361 108.281 131.677C108.281 133.992 110.158 135.87 112.474 135.87Z" stroke="#BF9001" stroke-opacity="0.2" stroke-width="1.18" stroke-linecap="round" stroke-linejoin="round"/>
  <path d="M139.28 135.87C141.596 135.87 143.473 133.992 143.473 131.677C143.473 129.361 141.596 127.484 139.28 127.484C136.964 127.484 135.087 129.361 135.087 131.677C135.087 133.992 136.964 135.87 139.28 135.87Z" stroke="#BF9001" stroke-opacity="0.2" stroke-width="1.18" stroke-linecap="round" stroke-linejoin="round"/>
  <path d="M166.072 135.87C168.388 135.87 170.265 133.992 170.265 131.677C170.265 129.361 168.388 127.484 166.072 127.484C163.756 127.484 161.879 129.361 161.879 131.677C161.879 133.992 163.756 135.87 166.072 135.87Z" stroke="#BF9001" stroke-opacity="0.2" stroke-width="1.18" stroke-linecap="round" stroke-linejoin="round"/>
  <path d="M9.52679 106.363C9.54657 107.21 9.31338 108.044 8.85703 108.758C8.40068 109.472 7.74188 110.034 6.96469 110.372C6.1875 110.711 5.32721 110.809 4.49363 110.656C3.66006 110.503 2.89102 110.105 2.2847 109.513C1.67837 108.921 1.26228 108.161 1.08953 107.331C0.916776 106.502 0.995177 105.639 1.31478 104.854C1.63438 104.069 2.18064 103.398 2.88384 102.924C3.58704 102.451 4.41529 102.199 5.26281 102.198C5.817 102.189 6.36755 102.29 6.88262 102.494C7.3977 102.699 7.86709 103.004 8.26361 103.391C8.66014 103.778 8.97594 104.24 9.19276 104.75C9.40958 105.261 9.52311 105.809 9.52679 106.363V106.363Z" stroke="#BF9001" stroke-opacity="0.2" stroke-width="1.18" stroke-linecap="round" stroke-linejoin="round"/>
  <path d="M36.248 106.363C36.2508 107.193 36.007 108.006 35.5473 108.698C35.0877 109.389 34.433 109.929 33.6662 110.248C32.8995 110.567 32.0553 110.651 31.2407 110.49C30.426 110.329 29.6775 109.929 29.0903 109.342C28.503 108.755 28.1035 108.006 27.9421 107.192C27.7808 106.377 27.865 105.533 28.1841 104.766C28.5032 103.999 29.0428 103.344 29.7345 102.885C30.4262 102.425 31.2388 102.181 32.0693 102.184C33.1764 102.188 34.2371 102.629 35.02 103.412C35.8028 104.195 36.2443 105.256 36.248 106.363V106.363Z" stroke="#BF9001" stroke-opacity="0.2" stroke-width="1.18" stroke-linecap="round" stroke-linejoin="round"/>
  <path d="M63.054 106.363C63.0569 107.193 62.8134 108.005 62.3544 108.696C61.8954 109.387 61.2415 109.927 60.4756 110.247C59.7097 110.566 58.8662 110.651 58.0519 110.491C57.2376 110.331 56.4892 109.933 55.9014 109.347C55.3136 108.761 54.9128 108.014 54.7499 107.2C54.587 106.386 54.6691 105.543 54.986 104.776C55.303 104.009 55.8404 103.353 56.5302 102.892C57.22 102.43 58.0313 102.184 58.8612 102.184C59.9708 102.184 61.0351 102.624 61.821 103.407C62.6069 104.19 63.0503 105.253 63.054 106.363Z" stroke="#BF9001" stroke-opacity="0.2" stroke-width="1.18" stroke-linecap="round" stroke-linejoin="round"/>
  <path d="M89.8601 106.363C89.863 107.193 89.6194 108.005 89.1604 108.696C88.7014 109.387 88.0475 109.927 87.2816 110.247C86.5157 110.566 85.6722 110.651 84.8579 110.491C84.0436 110.331 83.2953 109.933 82.7074 109.347C82.1196 108.761 81.7188 108.014 81.5559 107.2C81.393 106.386 81.4752 105.543 81.7921 104.776C82.1091 104.009 82.6465 103.353 83.3363 102.892C84.0261 102.43 84.8373 102.184 85.6672 102.184C86.7768 102.184 87.8411 102.624 88.6271 103.407C89.413 104.19 89.8564 105.253 89.8601 106.363V106.363Z" stroke="#BF9001" stroke-opacity="0.2" stroke-width="1.18" stroke-linecap="round" stroke-linejoin="round"/>
  <path d="M116.652 106.363C116.655 107.193 116.411 108.006 115.952 108.698C115.492 109.389 114.837 109.929 114.071 110.248C113.304 110.567 112.46 110.651 111.645 110.49C110.83 110.329 110.082 109.929 109.495 109.342C108.907 108.755 108.508 108.006 108.346 107.192C108.185 106.377 108.269 105.533 108.588 104.766C108.907 103.999 109.447 103.344 110.139 102.885C110.83 102.425 111.643 102.181 112.474 102.184C113.582 102.184 114.645 102.624 115.428 103.408C116.212 104.192 116.652 105.255 116.652 106.363V106.363Z" stroke="#BF9001" stroke-opacity="0.2" stroke-width="1.18" stroke-linecap="round" stroke-linejoin="round"/>
  <path d="M143.458 106.363C143.461 107.193 143.217 108.006 142.758 108.698C142.298 109.389 141.643 109.929 140.876 110.248C140.11 110.567 139.266 110.651 138.451 110.49C137.636 110.329 136.888 109.929 136.301 109.342C135.713 108.755 135.314 108.006 135.152 107.192C134.991 106.377 135.075 105.533 135.394 104.766C135.713 103.999 136.253 103.344 136.945 102.885C137.637 102.425 138.449 102.181 139.28 102.184C140.387 102.188 141.447 102.629 142.23 103.412C143.013 104.195 143.455 105.256 143.458 106.363Z" stroke="#BF9001" stroke-opacity="0.2" stroke-width="1.18" stroke-linecap="round" stroke-linejoin="round"/>
  <path d="M170.265 106.363C170.268 107.19 170.026 107.999 169.57 108.689C169.114 109.378 168.464 109.918 167.702 110.239C166.941 110.561 166.101 110.65 165.289 110.496C164.476 110.341 163.728 109.95 163.137 109.371C162.547 108.792 162.141 108.052 161.97 107.243C161.799 106.434 161.871 105.593 162.177 104.824C162.483 104.056 163.009 103.396 163.69 102.926C164.37 102.456 165.174 102.198 166.001 102.184C166.556 102.175 167.108 102.276 167.624 102.481C168.14 102.687 168.61 102.993 169.007 103.382C169.404 103.771 169.719 104.234 169.935 104.746C170.151 105.258 170.263 105.807 170.265 106.363V106.363Z" stroke="#BF9001" stroke-opacity="0.2" stroke-width="1.18" stroke-linecap="round" stroke-linejoin="round"/>
  <path d="M9.52744 81.0915C9.52732 81.9177 9.28311 82.7255 8.82545 83.4134C8.3678 84.1013 7.71708 84.6386 6.95506 84.9579C6.19304 85.2773 5.35365 85.3644 4.5423 85.2083C3.73095 85.0522 2.98382 84.6598 2.3947 84.0805C1.80558 83.5012 1.40074 82.7608 1.23102 81.9522C1.0613 81.1435 1.13426 80.3028 1.44074 79.5355C1.74722 78.7683 2.27357 78.1086 2.95368 77.6395C3.63378 77.1703 4.43735 76.9126 5.26346 76.8986C5.82003 76.8891 6.37293 76.9906 6.88987 77.1971C7.40681 77.4036 7.87746 77.7109 8.27437 78.1012C8.67127 78.4915 8.98646 78.9569 9.20161 79.4703C9.41675 79.9837 9.52752 80.5348 9.52744 81.0915V81.0915Z" stroke="#BF9001" stroke-opacity="0.2" stroke-width="1.18" stroke-linecap="round" stroke-linejoin="round"/>
  <path d="M36.2481 81.0919C36.2481 81.9217 36.0018 82.733 35.5405 83.4228C35.0791 84.1126 34.4235 84.65 33.6565 84.967C32.8895 85.2839 32.0457 85.3661 31.232 85.2031C30.4182 85.0402 29.6711 84.6395 29.0853 84.0516C28.4995 83.4638 28.1013 82.7154 27.9411 81.9011C27.7809 81.0868 27.866 80.2433 28.1855 79.4774C28.5051 78.7115 29.0446 78.0577 29.736 77.5987C30.4274 77.1397 31.2395 76.8961 32.0694 76.8989C32.6193 76.8989 33.1639 77.0075 33.6718 77.2184C34.1798 77.4293 34.641 77.7383 35.0292 78.1279C35.4174 78.5174 35.725 78.9798 35.9341 79.4884C36.1433 79.997 36.25 80.5419 36.2481 81.0919V81.0919Z" stroke="#BF9001" stroke-opacity="0.2" stroke-width="1.18" stroke-linecap="round" stroke-linejoin="round"/>
  <path d="M63.054 81.0918C63.054 81.9211 62.8082 82.7318 62.3474 83.4213C61.8867 84.1108 61.2319 84.6482 60.4657 84.9656C59.6996 85.2829 58.8565 85.366 58.0431 85.2042C57.2298 85.0424 56.4827 84.6431 55.8963 84.0567C55.3099 83.4703 54.9106 82.7232 54.7489 81.9098C54.5871 81.0965 54.6701 80.2534 54.9874 79.4873C55.3048 78.7211 55.8421 78.0663 56.5317 77.6056C57.2212 77.1448 58.0319 76.8989 58.8612 76.8989C59.4118 76.8989 59.957 77.0074 60.4657 77.2181C60.9744 77.4288 61.4366 77.7377 61.826 78.127C62.2153 78.5163 62.5242 78.9786 62.7349 79.4873C62.9456 79.996 63.054 80.5412 63.054 81.0918V81.0918Z" stroke="#BF9001" stroke-opacity="0.2" stroke-width="1.18" stroke-linecap="round" stroke-linejoin="round"/>
  <path d="M89.8602 81.0918C89.8602 81.9211 89.6142 82.7318 89.1535 83.4213C88.6928 84.1108 88.0379 84.6482 87.2718 84.9656C86.5056 85.2829 85.6626 85.366 84.8492 85.2042C84.0359 85.0424 83.2887 84.6431 82.7023 84.0567C82.1159 83.4703 81.7167 82.7232 81.5549 81.9098C81.3931 81.0965 81.4761 80.2534 81.7934 79.4873C82.1108 78.7211 82.6483 78.0663 83.3378 77.6056C84.0273 77.1448 84.8379 76.8989 85.6672 76.8989C86.7793 76.8989 87.8457 77.3407 88.632 78.127C89.4183 78.9133 89.8602 79.9798 89.8602 81.0918V81.0918Z" stroke="#BF9001" stroke-opacity="0.2" stroke-width="1.18" stroke-linecap="round" stroke-linejoin="round"/>
  <path d="M116.652 81.0919C116.652 81.9217 116.406 82.733 115.945 83.4228C115.483 84.1126 114.828 84.65 114.061 84.967C113.294 85.2839 112.45 85.3661 111.636 85.2031C110.822 85.0402 110.075 84.6395 109.49 84.0516C108.904 83.4638 108.505 82.7154 108.345 81.9011C108.185 81.0868 108.27 80.2433 108.59 79.4774C108.909 78.7115 109.449 78.0577 110.14 77.5987C110.832 77.1397 111.644 76.8961 112.474 76.8989C113.024 76.8989 113.568 77.0075 114.076 77.2184C114.584 77.4293 115.045 77.7383 115.433 78.1279C115.822 78.5174 116.129 78.9798 116.338 79.4884C116.548 79.997 116.654 80.5419 116.652 81.0919V81.0919Z" stroke="#BF9001" stroke-opacity="0.2" stroke-width="1.18" stroke-linecap="round" stroke-linejoin="round"/>
  <path d="M143.458 81.0919C143.458 81.9217 143.212 82.733 142.751 83.4228C142.289 84.1126 141.634 84.65 140.867 84.967C140.1 85.2839 139.256 85.3661 138.442 85.2031C137.628 85.0402 136.881 84.6395 136.296 84.0516C135.71 83.4638 135.312 82.7154 135.151 81.9011C134.991 81.0868 135.076 80.2433 135.396 79.4774C135.715 78.7115 136.255 78.0577 136.946 77.5987C137.638 77.1397 138.45 76.8961 139.28 76.8989C139.83 76.8989 140.374 77.0075 140.882 77.2184C141.39 77.4293 141.851 77.7383 142.239 78.1279C142.628 78.5174 142.935 78.9798 143.144 79.4884C143.353 79.997 143.46 80.5419 143.458 81.0919V81.0919Z" stroke="#BF9001" stroke-opacity="0.2" stroke-width="1.18" stroke-linecap="round" stroke-linejoin="round"/>
  <path d="M170.265 81.0915C170.265 81.9177 170.021 82.7255 169.563 83.4134C169.105 84.1013 168.455 84.6386 167.693 84.9579C166.931 85.2773 166.091 85.3644 165.28 85.2083C164.469 85.0522 163.721 84.6598 163.132 84.0805C162.543 83.5012 162.138 82.7608 161.969 81.9522C161.799 81.1435 161.872 80.3028 162.178 79.5355C162.485 78.7683 163.011 78.1086 163.691 77.6395C164.371 77.1703 165.175 76.9126 166.001 76.8986C166.558 76.8891 167.11 76.9906 167.627 77.1971C168.144 77.4036 168.615 77.7109 169.012 78.1012C169.409 78.4915 169.724 78.9569 169.939 79.4703C170.154 79.9837 170.265 80.5348 170.265 81.0915V81.0915Z" stroke="#BF9001" stroke-opacity="0.2" stroke-width="1.18" stroke-linecap="round" stroke-linejoin="round"/>
  <path d="M9.52683 55.7918C9.51282 56.6179 9.25504 57.4215 8.78589 58.1016C8.31673 58.7817 7.65714 59.3081 6.88986 59.6145C6.12258 59.921 5.28185 59.994 4.47324 59.8243C3.66463 59.6546 2.92415 59.2497 2.34485 58.6606C1.76555 58.0715 1.37324 57.3243 1.21713 56.513C1.06102 55.7016 1.14807 54.8623 1.46741 54.1002C1.78674 53.3382 2.32411 52.6875 3.01201 52.2299C3.6999 51.7722 4.50767 51.528 5.3339 51.5279C5.8911 51.5258 6.44307 51.6353 6.95735 51.8498C7.47163 52.0642 7.93782 52.3794 8.32849 52.7767C8.71917 53.174 9.02647 53.6454 9.23226 54.1632C9.43806 54.681 9.5382 55.2348 9.52683 55.7918V55.7918Z" stroke="#BF9001" stroke-opacity="0.2" stroke-width="1.18" stroke-linecap="round" stroke-linejoin="round"/>
  <path d="M36.2481 55.7918C36.2341 56.6185 35.976 57.4227 35.5062 58.1031C35.0364 58.7835 34.376 59.3098 33.6079 59.6158C32.8397 59.9219 31.9983 59.994 31.1893 59.8231C30.3803 59.6523 29.6399 59.246 29.0612 58.6555C28.4824 58.065 28.0913 57.3165 27.9368 56.5042C27.7823 55.692 27.8714 54.8521 28.1929 54.0904C28.5144 53.3286 29.054 52.6789 29.7437 52.223C30.4335 51.767 31.2426 51.5252 32.0694 51.5279C32.6254 51.5277 33.1759 51.6386 33.6885 51.8539C34.2012 52.0692 34.6656 52.3847 35.0548 52.7818C35.4439 53.1789 35.75 53.6496 35.9549 54.1665C36.1598 54.6834 36.2595 55.2359 36.2481 55.7918V55.7918Z" stroke="#BF9001" stroke-opacity="0.2" stroke-width="1.18" stroke-linecap="round" stroke-linejoin="round"/>
  <path d="M63.0541 55.7918C63.0401 56.6179 62.7824 57.4215 62.3133 58.1016C61.8441 58.7817 61.1845 59.3081 60.4172 59.6145C59.6499 59.921 58.8092 59.994 58.0006 59.8243C57.192 59.6546 56.4515 59.2497 55.8722 58.6606C55.2929 58.0715 54.9006 57.3243 54.7445 56.513C54.5883 55.7016 54.6755 54.8623 54.9948 54.1002C55.3142 53.3382 55.8514 52.6875 56.5393 52.2299C57.2272 51.7722 58.0351 51.528 58.8613 51.5279C59.4185 51.5258 59.9705 51.6353 60.4848 51.8498C60.999 52.0642 61.4652 52.3794 61.8559 52.7767C62.2465 53.174 62.5538 53.6454 62.7596 54.1632C62.9654 54.681 63.0655 55.2348 63.0541 55.7918V55.7918Z" stroke="#BF9001" stroke-opacity="0.2" stroke-width="1.18" stroke-linecap="round" stroke-linejoin="round"/>
  <path d="M89.8602 55.7918C89.8462 56.6179 89.5884 57.4215 89.1193 58.1016C88.6501 58.7817 87.9904 59.3081 87.2231 59.6145C86.4559 59.921 85.6151 59.994 84.8065 59.8243C83.9979 59.6546 83.2575 59.2497 82.6782 58.6606C82.0989 58.0715 81.7066 57.3243 81.5505 56.513C81.3944 55.7016 81.4814 54.8623 81.8008 54.1002C82.1201 53.3382 82.6575 52.6875 83.3454 52.2299C84.0333 51.7722 84.841 51.528 85.6673 51.5279C86.2245 51.5258 86.7764 51.6353 87.2907 51.8498C87.805 52.0642 88.2711 52.3794 88.6618 52.7767C89.0525 53.174 89.3598 53.6454 89.5656 54.1632C89.7714 54.681 89.8716 55.2348 89.8602 55.7918V55.7918Z" stroke="#BF9001" stroke-opacity="0.2" stroke-width="1.18" stroke-linecap="round" stroke-linejoin="round"/>
  <path d="M116.652 55.7918C116.638 56.6186 116.38 57.4227 115.91 58.1031C115.441 58.7835 114.78 59.3098 114.012 59.6159C113.244 59.9219 112.402 59.994 111.593 59.8231C110.785 59.6523 110.044 59.246 109.465 58.6555C108.887 58.065 108.495 57.3165 108.341 56.5042C108.186 55.692 108.276 54.8521 108.597 54.0904C108.919 53.3286 109.458 52.6789 110.148 52.223C110.838 51.767 111.647 51.5252 112.474 51.5279C113.03 51.5258 113.581 51.6353 114.095 51.85C114.608 52.0646 115.074 52.38 115.463 52.7775C115.853 53.175 116.159 53.6465 116.363 54.1643C116.567 54.682 116.666 55.2354 116.652 55.7918V55.7918Z" stroke="#BF9001" stroke-opacity="0.2" stroke-width="1.18" stroke-linecap="round" stroke-linejoin="round"/>
  <path d="M143.458 55.7918C143.444 56.6185 143.186 57.4227 142.717 58.1031C142.247 58.7835 141.586 59.3098 140.818 59.6158C140.05 59.9219 139.209 59.994 138.4 59.8231C137.591 59.6523 136.85 59.246 136.272 58.6555C135.693 58.065 135.302 57.3165 135.147 56.5042C134.993 55.692 135.082 54.8521 135.403 54.0904C135.725 53.3286 136.264 52.6789 136.954 52.223C137.644 51.767 138.453 51.5252 139.28 51.5279C139.836 51.5277 140.386 51.6386 140.899 51.8539C141.411 52.0692 141.876 52.3847 142.265 52.7818C142.654 53.1789 142.96 53.6496 143.165 54.1665C143.37 54.6834 143.47 55.2359 143.458 55.7918V55.7918Z" stroke="#BF9001" stroke-opacity="0.2" stroke-width="1.18" stroke-linecap="round" stroke-linejoin="round"/>
  <path d="M170.265 55.7922C170.251 56.6153 169.995 57.416 169.529 58.0945C169.063 58.773 168.407 59.2994 167.644 59.6079C166.881 59.9164 166.044 59.9934 165.237 59.8293C164.431 59.6653 163.69 59.2674 163.108 58.6854C162.526 58.1033 162.128 57.3628 161.964 56.5561C161.8 55.7494 161.877 54.9123 162.186 54.1491C162.494 53.386 163.02 52.7305 163.699 52.2644C164.377 51.7983 165.178 51.5423 166.001 51.5282C166.564 51.5166 167.124 51.619 167.646 51.8291C168.169 52.0393 168.644 52.353 169.042 52.7513C169.44 53.1495 169.754 53.6242 169.964 54.1468C170.174 54.6694 170.277 55.2291 170.265 55.7922V55.7922Z" stroke="#BF9001" stroke-opacity="0.2" stroke-width="1.18" stroke-linecap="round" stroke-linejoin="round"/>
  <path d="M9.52744 30.4923C9.52732 31.3186 9.28311 32.1264 8.82545 32.8142C8.3678 33.5021 7.71708 34.0395 6.95506 34.3588C6.19304 34.6782 5.35365 34.7652 4.5423 34.6091C3.73095 34.453 2.98382 34.0607 2.3947 33.4814C1.80558 32.9021 1.40074 32.1616 1.23102 31.353C1.0613 30.5444 1.13426 29.7037 1.44074 28.9364C1.74722 28.1691 2.27357 27.5095 2.95368 27.0403C3.63378 26.5712 4.43735 26.3134 5.26346 26.2994C5.82003 26.29 6.37293 26.3915 6.88987 26.598C7.40681 26.8045 7.87746 27.1118 8.27437 27.5021C8.67127 27.8924 8.98646 28.3578 9.20161 28.8712C9.41675 29.3846 9.52752 29.9357 9.52744 30.4923V30.4923Z" stroke="#BF9001" stroke-opacity="0.2" stroke-width="1.18" stroke-linecap="round" stroke-linejoin="round"/>
  <path d="M32.0689 34.6851C34.3846 34.6851 36.2619 32.8079 36.2619 30.4922C36.2619 28.1765 34.3846 26.2993 32.0689 26.2993C29.7533 26.2993 27.8761 28.1765 27.8761 30.4922C27.8761 32.8079 29.7533 34.6851 32.0689 34.6851Z" stroke="#BF9001" stroke-opacity="0.2" stroke-width="1.18" stroke-linecap="round" stroke-linejoin="round"/>
  <path d="M58.8758 34.6851C61.1915 34.6851 63.0686 32.8079 63.0686 30.4922C63.0686 28.1765 61.1915 26.2993 58.8758 26.2993C56.5601 26.2993 54.6829 28.1765 54.6829 30.4922C54.6829 32.8079 56.5601 34.6851 58.8758 34.6851Z" stroke="#BF9001" stroke-opacity="0.2" stroke-width="1.18" stroke-linecap="round" stroke-linejoin="round"/>
  <path d="M85.6672 34.6851C87.9829 34.6851 89.8602 32.8079 89.8602 30.4922C89.8602 28.1765 87.9829 26.2993 85.6672 26.2993C83.3516 26.2993 81.4743 28.1765 81.4743 30.4922C81.4743 32.8079 83.3516 34.6851 85.6672 34.6851Z" stroke="#BF9001" stroke-opacity="0.2" stroke-width="1.18" stroke-linecap="round" stroke-linejoin="round"/>
  <path d="M112.474 34.6851C114.79 34.6851 116.667 32.8079 116.667 30.4922C116.667 28.1765 114.79 26.2993 112.474 26.2993C110.158 26.2993 108.281 28.1765 108.281 30.4922C108.281 32.8079 110.158 34.6851 112.474 34.6851Z" stroke="#BF9001" stroke-opacity="0.2" stroke-width="1.18" stroke-linecap="round" stroke-linejoin="round"/>
  <path d="M139.28 34.6851C141.596 34.6851 143.473 32.8079 143.473 30.4922C143.473 28.1765 141.596 26.2993 139.28 26.2993C136.964 26.2993 135.087 28.1765 135.087 30.4922C135.087 32.8079 136.964 34.6851 139.28 34.6851Z" stroke="#BF9001" stroke-opacity="0.2" stroke-width="1.18" stroke-linecap="round" stroke-linejoin="round"/>
  <path d="M166.072 34.6851C168.388 34.6851 170.265 32.8079 170.265 30.4922C170.265 28.1765 168.388 26.2993 166.072 26.2993C163.756 26.2993 161.879 28.1765 161.879 30.4922C161.879 32.8079 163.756 34.6851 166.072 34.6851Z" stroke="#BF9001" stroke-opacity="0.2" stroke-width="1.18" stroke-linecap="round" stroke-linejoin="round"/>
  <path d="M9.52698 5.19286C9.50834 6.31138 9.0509 7.37777 8.25326 8.16211C7.45562 8.94646 6.38167 9.38593 5.263 9.38578C4.15668 9.36749 3.10081 8.91986 2.31841 8.13747C1.53602 7.35507 1.08836 6.29918 1.07007 5.19286C1.092 4.08902 1.54126 3.03672 2.32327 2.25736C3.10528 1.478 4.15909 1.03234 5.263 1.01416C6.37926 1.01394 7.45107 1.45145 8.24832 2.23275C9.04556 3.01405 9.50466 4.07683 9.52698 5.19286Z" stroke="#BF9001" stroke-opacity="0.2" stroke-width="1.18" stroke-linecap="round" stroke-linejoin="round"/>
  <path d="M32.0689 9.38583C34.3846 9.38583 36.2619 7.5086 36.2619 5.19291C36.2619 2.87723 34.3846 1 32.0689 1C29.7533 1 27.8761 2.87723 27.8761 5.19291C27.8761 7.5086 29.7533 9.38583 32.0689 9.38583Z" stroke="#BF9001" stroke-opacity="0.2" stroke-width="1.18" stroke-linecap="round" stroke-linejoin="round"/>
  <path d="M58.8758 9.38583C61.1915 9.38583 63.0686 7.5086 63.0686 5.19291C63.0686 2.87723 61.1915 1 58.8758 1C56.5601 1 54.6829 2.87723 54.6829 5.19291C54.6829 7.5086 56.5601 9.38583 58.8758 9.38583Z" stroke="#BF9001" stroke-opacity="0.2" stroke-width="1.18" stroke-linecap="round" stroke-linejoin="round"/>
  <path d="M85.6672 9.38583C87.9829 9.38583 89.8602 7.5086 89.8602 5.19291C89.8602 2.87723 87.9829 1 85.6672 1C83.3516 1 81.4743 2.87723 81.4743 5.19291C81.4743 7.5086 83.3516 9.38583 85.6672 9.38583Z" stroke="#BF9001" stroke-opacity="0.2" stroke-width="1.18" stroke-linecap="round" stroke-linejoin="round"/>
  <path d="M112.474 9.38583C114.79 9.38583 116.667 7.5086 116.667 5.19291C116.667 2.87723 114.79 1 112.474 1C110.158 1 108.281 2.87723 108.281 5.19291C108.281 7.5086 110.158 9.38583 112.474 9.38583Z" stroke="#BF9001" stroke-opacity="0.2" stroke-width="1.18" stroke-linecap="round" stroke-linejoin="round"/>
  <path d="M139.28 9.38583C141.596 9.38583 143.473 7.5086 143.473 5.19291C143.473 2.87723 141.596 1 139.28 1C136.964 1 135.087 2.87723 135.087 5.19291C135.087 7.5086 136.964 9.38583 139.28 9.38583Z" stroke="#BF9001" stroke-opacity="0.2" stroke-width="1.18" stroke-linecap="round" stroke-linejoin="round"/>
  <path d="M166.072 9.38583C168.388 9.38583 170.265 7.5086 170.265 5.19291C170.265 2.87723 168.388 1 166.072 1C163.756 1 161.879 2.87723 161.879 5.19291C161.879 7.5086 163.756 9.38583 166.072 9.38583Z" stroke="#BF9001" stroke-opacity="0.2" stroke-width="1.18" stroke-linecap="round" stroke-linejoin="round"/>
</svg>
