<svg width="317" height="321" viewBox="0 0 317 321" fill="none" xmlns="http://www.w3.org/2000/svg">
<path d="M480.553 228.282C480.553 228.282 396.951 211.26 380.588 111.445C362.218 -0.431338 265.252 -21.4786 216.742 22.3595C168.231 66.1975 192.213 188.206 95.4754 199.518C-1.26209 210.83 0.988006 367.37 0.988006 367.37M405.664 282.62C405.664 282.62 349.748 210.136 336.132 125.212C322.516 40.2885 269.54 45.9755 252.502 61.5681C217.12 93.9003 241.297 202.108 176.559 229.282C127.875 249.661 47.9882 229.285 40.3947 332.986M363.061 255.727C363.061 255.727 349.044 169.232 303.883 199.158C252.168 233.473 265.171 273.081 181.664 257.299C151.997 251.686 47.5338 279.138 90.784 346.747M271.542 87.3936C259.778 90.9688 255.314 110.555 261.571 131.141C267.828 151.726 282.436 165.516 294.199 161.941C305.962 158.365 310.426 138.779 304.169 118.194C297.913 97.6079 283.305 83.8183 271.542 87.3936Z" stroke="#BF9001" stroke-opacity="0.2" stroke-width="0.5" stroke-miterlimit="10"/>
</svg>
