<svg width="592" height="738" viewBox="0 0 592 738" fill="none" xmlns="http://www.w3.org/2000/svg">
<path d="M-175.386 -55.6097C-175.386 -55.6097 -88.6114 85.6199 104.475 48.9804C320.913 7.96671 423.938 170.902 376.248 288.639C328.557 406.376 89.887 443.898 133.698 627.977C177.509 812.055 -109.71 912.244 -109.71 912.244M-224.664 117.264C-224.664 117.264 -55.1084 171.015 108.968 139.283C273.045 107.551 297.963 208.018 280.856 249.5C245.419 335.613 31.8073 363.584 25.3441 499.833C20.5874 602.257 111.007 734.471 -73.2088 817.42M-147.192 177.093C-147.192 177.093 20.02 145.048 -4.51076 247.402C-32.6852 364.642 -113.641 367.302 -29.1942 509.184C0.818489 559.585 20.3181 768.515 -131.901 734.63M518.781 9.44133C608.566 93.9884 616.526 238.639 536.56 332.527C456.594 426.415 318.984 433.988 229.198 349.441C139.413 264.894 131.453 120.243 211.419 26.3551C291.385 -67.5332 428.996 -75.1057 518.781 9.44133ZM221.033 231.96C222.345 255.81 189.57 277.006 147.828 279.303C106.086 281.6 71.1839 264.128 69.8715 240.279C68.5591 216.429 101.334 195.234 143.076 192.937C184.818 190.64 219.72 208.111 221.033 231.96Z" stroke="#BF9001" stroke-opacity="0.2" stroke-width="0.5" stroke-miterlimit="10"/>
</svg>
