<svg width="918" height="307" viewBox="0 0 918 307" fill="none" xmlns="http://www.w3.org/2000/svg">
<path d="M1141.56 541.326C1141.56 541.326 942.765 500.848 903.855 263.499C860.174 -2.53178 629.599 -52.58 514.246 51.6625C398.892 155.905 455.919 446.028 225.887 472.927C-4.14523 499.826 1.20527 872.063 1.20527 872.063M963.483 670.536C963.483 670.536 830.522 498.176 798.144 296.236C765.766 94.296 639.795 107.819 599.281 144.897C515.145 221.779 572.636 479.086 418.696 543.704C302.929 592.163 112.967 543.711 94.9105 790.301M862.179 606.586C862.179 606.586 828.846 400.91 721.46 472.072C598.487 553.67 629.405 647.853 430.834 610.326C360.289 596.978 111.886 662.256 214.731 823.023M644.555 206.307C616.583 214.809 605.968 261.383 620.846 310.333C635.724 359.284 670.46 392.074 698.432 383.573C726.403 375.071 737.018 328.497 722.14 279.546C707.263 230.596 672.526 197.805 644.555 206.307Z" stroke="#BF9001" stroke-opacity="0.2" stroke-width="0.5" stroke-miterlimit="10"/>
</svg>
