<svg width="570" height="1147" viewBox="0 0 570 1147" fill="none" xmlns="http://www.w3.org/2000/svg">
<path d="M707.076 -32.8099C707.076 -32.8099 592.355 134.517 358.597 77.8958C96.5645 14.4965 -39.3488 207.361 11.7242 354.21C62.7972 501.059 352.217 561.552 287.384 783.892C222.551 1006.23 567.468 1146.31 567.468 1146.31M756.709 181.536C756.709 181.536 546.17 236.854 347.569 188.01C148.968 139.165 112.352 260.453 130.718 312.211C168.753 419.65 428.13 466.932 427.678 633.883C427.213 759.382 308.59 915.465 528.667 1028.15M658.349 249.927C658.349 249.927 455.935 200.507 479.643 327.132C506.893 472.177 605.68 480.389 493.765 648.657C453.992 708.429 417.35 962.639 605.48 930.543M204.914 294.435C201.848 323.509 240.608 351.428 291.487 356.794C342.367 362.16 386.098 342.94 389.164 313.866C392.231 284.792 353.47 256.874 302.591 251.508C251.712 246.142 207.98 265.361 204.914 294.435Z" stroke="#BF9001" stroke-opacity="0.3" stroke-width="0.5" stroke-miterlimit="10"/>
</svg>
