<svg width="355" height="829" viewBox="0 0 355 829" fill="none" xmlns="http://www.w3.org/2000/svg">
<path d="M-431.714 208.603C-431.714 208.603 -264.027 269.708 -125.659 109.637C29.4812 -69.7459 225.397 -1.19864 263.937 130.034C302.476 261.266 126.245 452.574 286.356 578.569C446.466 704.564 271.208 981.217 271.208 981.217M-357.626 387.414C-357.626 387.414 -178.634 319.342 -61.4541 182.816C55.7257 46.2905 143.961 114.383 157.283 160.823C185.001 257.179 23.5192 423.667 109.221 542.938C173.733 632.533 338.462 683.594 238.559 876.801M-252.245 386.067C-252.245 386.067 -132.631 247.179 -84.8465 349.941C-30.1769 467.699 -96.6885 524.097 69.4706 587.31C128.508 609.755 284.737 772.979 133.66 846.214M95.0834 186.043C112.146 205.286 98.6794 245.092 65.004 274.952C31.3287 304.812 -9.80274 313.419 -26.8657 294.176C-43.9286 274.933 -30.4616 235.127 3.21372 205.267C36.889 175.407 78.0205 166.8 95.0834 186.043Z" stroke="#BF9001" stroke-opacity="0.3" stroke-width="0.5" stroke-miterlimit="10"/>
</svg>
