<svg width="157" height="151" viewBox="0 0 145 125" fill="none" xmlns="http://www.w3.org/2000/svg">
    <g filter="url(#filter0_d_1_1998)">
    <path d="M27 13.4111H129.606V109.981H27V13.4111Z" fill="#BF9001"/>
    </g>
    <g clip-path="url(#clip0_1_1998)">
    <path d="M78.0001 41.367H78.3308V46.471L88.8538 39.7355L78.3308 33V38.104H78.0001C73.3074 38.1015 68.717 39.4697 64.7976 42.039C60.8781 44.6084 57.8018 48.2661 55.9496 52.5592C54.0973 56.8522 53.5506 61.5919 54.3772 66.1912C55.2037 70.7905 57.3671 75.0474 60.5995 78.4346L62.9146 76.1295C60.1393 73.1989 58.287 69.5232 57.5863 65.5561C56.8856 61.5891 57.3673 57.5046 58.9719 53.8071C60.5764 50.1096 63.2336 46.9611 66.6152 44.7503C69.9968 42.5395 73.9547 41.3633 78.0001 41.367V41.367Z" fill="white"/>
    <path d="M94.9722 45.1313L92.6572 47.4364C94.5877 49.3425 96.1187 51.6114 97.1613 54.1115C98.2038 56.6116 98.7372 59.293 98.7304 62C98.7245 67.4724 96.5385 72.7189 92.6521 76.5885C88.7657 80.458 83.4963 82.6346 78.0001 82.6405H77.6769V77.5365L67.1539 84.272L77.6769 91.0075V85.896H78.0001C82.7459 85.9014 87.3866 84.5045 91.3346 81.882C95.2825 79.2596 98.36 75.5297 100.177 71.1646C101.995 66.7995 102.47 61.9956 101.544 57.3613C100.617 52.727 98.33 48.4706 94.9722 45.1313V45.1313Z" fill="white"/>
    <path d="M69.8748 62.8157L64.5607 68.234V71.2275H77.3387V67.6128H70.183L73.4527 64.2376C74.4568 63.2552 75.3399 62.1573 76.0834 60.9672C76.5475 60.1526 76.791 59.2319 76.79 58.2954C76.8286 57.535 76.6914 56.776 76.3891 56.0766C76.0868 55.3773 75.6273 54.7564 75.0461 54.2616C73.9031 53.2781 72.4378 52.7456 70.9271 52.7648C69.5669 52.71 68.2213 53.0619 67.0637 53.7752C65.9402 54.5748 64.9915 55.5932 64.2751 56.7687L67.5147 58.6846C68.5169 57.0681 69.5967 56.2598 70.7543 56.2598C71.0355 56.2505 71.3157 56.2986 71.5775 56.4013C71.8393 56.504 72.0772 56.6589 72.2765 56.8567C72.4759 57.0545 72.6324 57.2908 72.7364 57.5511C72.8404 57.8114 72.8898 58.0902 72.8814 58.3703C72.8563 59.0499 72.617 59.7045 72.1974 60.2412C71.4891 61.1561 70.7127 62.0167 69.8748 62.8157V62.8157Z" fill="white"/>
    <path d="M84.9904 53.1914L78.5338 63.8484V66.9168H85.8172V71.2275H89.7032V66.9168H91.7552V63.4368H89.7032V61.5509H85.8172V63.4368H83.2541L89.395 53.1914H84.9904Z" fill="white"/>
    </g>
    <defs>
    <filter id="filter0_d_1_1998" x="0.233364" y="0.0277996" width="156.139" height="150.103" filterUnits="userSpaceOnUse" color-interpolation-filters="sRGB">
    <feFlood flood-opacity="0" result="BackgroundImageFix"/>
    <feColorMatrix in="SourceAlpha" type="matrix" values="0 0 0 0 0 0 0 0 0 0 0 0 0 0 0 0 0 0 127 0" result="hardAlpha"/>
    <feOffset dy="13.3833"/>
    <feGaussianBlur stdDeviation="13.3833"/>
    <feColorMatrix type="matrix" values="0 0 0 0 0 0 0 0 0 0 0 0 0 0 0 0 0 0 0.0751529 0"/>
    <feBlend mode="normal" in2="BackgroundImageFix" result="effect1_dropShadow_1_1998"/>
    <feBlend mode="normal" in="SourceGraphic" in2="effect1_dropShadow_1_1998" result="shape"/>
    </filter>
    <clipPath id="clip0_1_1998">
    <rect width="48" height="58" fill="white" transform="translate(54.0001 33)"/>
    </clipPath>
    </defs>
</svg>
