<svg width="157" height="151" viewBox="0 0 145 125" fill="none" xmlns="http://www.w3.org/2000/svg">
    <g filter="url(#filter0_d_1_1982)">
    <rect x="26.8824" y="13.8467" width="102.606" height="96.5699" fill="#BF9001"/>
    </g>
    <g clip-path="url(#clip0_1_1982)">
    <path fill-rule="evenodd" clip-rule="evenodd" d="M105.191 57.9521L78.4442 40.389C78.1128 40.1212 77.6991 39.9751 77.2724 39.9751C76.8456 39.9751 76.4319 40.1212 76.1005 40.389L66.8004 46.5954V43.9831C66.8004 42.7233 65.238 41.4079 63.0804 41.4079C60.9227 41.4079 59.3603 42.7233 59.3603 43.9831V51.4864L49.6324 57.9521C49.4625 58.0588 49.3186 58.2017 49.2109 58.3705C49.1031 58.5393 49.0344 58.7298 49.0094 58.9282C48.9845 59.1267 49.0041 59.3282 49.0668 59.5182C49.1295 59.7082 49.2337 59.882 49.372 60.0271C49.7545 60.282 50.2044 60.418 50.6647 60.418C51.125 60.418 51.5749 60.282 51.9574 60.0271L77.4026 43.2235L102.941 60.0271C103.086 60.1922 103.264 60.3246 103.465 60.4153C103.665 60.506 103.883 60.553 104.103 60.553C104.323 60.553 104.541 60.506 104.742 60.4153C104.942 60.3246 105.121 60.1922 105.266 60.0271C105.447 59.9207 105.597 59.769 105.702 59.5871C105.806 59.4051 105.861 59.1992 105.861 58.9896C105.861 58.78 105.806 58.5741 105.702 58.3921C105.597 58.2102 105.447 58.0585 105.266 57.9521H105.191ZM49.1116 66.4743C51.9574 71.9026 54.8218 77.5902 57.6677 82.9999C63.8802 78.0904 77.9234 81.4622 88.0605 80.7582C94.5706 77.1641 101.081 73.7923 107.535 70.1796C108.837 66.5669 107.535 64.5105 102.587 64.2326C98.179 66.8078 93.5104 69.42 89.1021 71.9952C84.4334 71.1986 79.802 70.7169 75.0775 69.9202C68.5674 61.1201 83.6336 68.0676 87.8001 67.3265C90.3855 65.4739 90.9249 63.7324 87.8001 61.6574C80.7878 60.3606 73.7755 58.8229 66.7632 57.2666C60.7925 60.3606 55.0823 63.473 49.1116 66.5299V66.4743Z" fill="white"/>
    </g>
    <defs>
    <filter id="filter0_d_1_1982" x="0.115719" y="0.463346" width="156.139" height="150.103" filterUnits="userSpaceOnUse" color-interpolation-filters="sRGB">
    <feFlood flood-opacity="0" result="BackgroundImageFix"/>
    <feColorMatrix in="SourceAlpha" type="matrix" values="0 0 0 0 0 0 0 0 0 0 0 0 0 0 0 0 0 0 127 0" result="hardAlpha"/>
    <feOffset dy="13.3833"/>
    <feGaussianBlur stdDeviation="13.3833"/>
    <feColorMatrix type="matrix" values="0 0 0 0 0 0 0 0 0 0 0 0 0 0 0 0 0 0 0.0751529 0"/>
    <feBlend mode="normal" in2="BackgroundImageFix" result="effect1_dropShadow_1_1982"/>
    <feBlend mode="normal" in="SourceGraphic" in2="effect1_dropShadow_1_1982" result="shape"/>
    </filter>
    <clipPath id="clip0_1_1982">
    <rect width="59" height="43" fill="white" transform="translate(49 40)"/>
    </clipPath>
    </defs>
</svg>
