<svg width="25" height="32" viewBox="0 0 25 32" fill="none" xmlns="http://www.w3.org/2000/svg">
<path opacity="0.5" fill-rule="evenodd" clip-rule="evenodd" d="M0.490681 0.47998C0.179091 0.858144 0 1.44019 0 2.19652V29.0988C0 29.8551 0.179091 30.4372 0.502329 30.8022L0.586778 30.8828L13.9356 15.8088V15.4701L0.57513 0.399414L0.490681 0.47998Z" fill="white"/>
<path fill-rule="evenodd" clip-rule="evenodd" d="M18.3765 20.8534L13.924 15.8238V15.472L18.3779 10.4424L18.474 10.5098L23.7419 13.8902C25.2504 14.8505 25.2504 16.4322 23.7419 17.4055L18.474 20.786C18.4726 20.786 18.3765 20.8534 18.3765 20.8534Z" fill="white"/>
<path opacity="0.7" fill-rule="evenodd" clip-rule="evenodd" d="M18.4733 20.7855L13.9247 15.6475L0.491379 30.8167C0.982059 31.4119 1.80762 31.4794 2.73074 30.8973L18.4733 20.7855Z" fill="white"/>
<path opacity="0.9" fill-rule="evenodd" clip-rule="evenodd" d="M18.4733 10.5112L2.73074 0.41255C1.80908 -0.18265 0.982059 -0.102084 0.491379 0.493116L13.9232 15.6477L18.4733 10.5112Z" fill="white"/>
<path opacity="0.2" fill-rule="evenodd" clip-rule="evenodd" d="M18.3766 20.6772L2.74182 30.7085C1.86821 31.2757 1.08924 31.2363 0.586906 30.7216L0.502457 30.817L0.586906 30.8976C1.08924 31.4106 1.86821 31.4517 2.74182 30.8844L18.4844 20.7858L18.3766 20.6772Z" fill="white"/>
<path opacity="0.12" fill-rule="evenodd" clip-rule="evenodd" d="M23.7404 17.2292L18.3648 20.677L18.4609 20.7855L23.7288 17.4051C24.483 16.9184 24.8543 16.2838 24.8543 15.6475C24.8062 16.2295 24.4233 16.7836 23.7404 17.2292Z" fill="white"/>
<path opacity="0.25" fill-rule="evenodd" clip-rule="evenodd" d="M2.73005 0.588485L23.7405 14.0676C24.4234 14.5 24.8063 15.0672 24.866 15.6493C24.866 15.0146 24.4947 14.3783 23.7405 13.8917L2.73005 0.412556C1.22161 -0.560806 0 0.249781 0 2.19651V2.37243C0 0.42571 1.22161 -0.371724 2.73005 0.588485Z" fill="white"/>
</svg>
