<svg width="1211" height="1111" viewBox="0 0 1211 1111" fill="none" xmlns="http://www.w3.org/2000/svg">
<g opacity="0.53">
<path d="M130.097 924.06C91.9869 660.996 639.997 616.62 831.097 617.293C1001.86 617.871 1115.86 589.815 1198.79 446.554C1285.5 296.589 1223.67 98.268 1262.79 61.4864C1323.03 4.84681 1454.86 231.983 1471.19 270.422C1629.42 643.158 1388.86 995 940.327 1077.82C767.227 1109.75 239.027 1164.54 146.917 979.137C138.407 961.938 133.017 943.633 130.097 924.06ZM438.957 663.482C272.647 709.869 49.1669 799.691 151.367 987.31C253.567 1174.93 875.777 1097.68 1026.43 1058.22C1467.24 942.787 1648.29 527.6 1430.76 189.817C1397.28 137.82 1257.3 -34.8 1252.28 125.513C1247.37 284.791 1250.64 511.436 1049.21 590.583C955.287 627.459 755.427 608.801 632.397 624.335C564.817 632.879 504.277 646.446 438.957 663.49V663.482Z" fill="url(#paint0_linear_1_16100)"/>
<path d="M113.547 880.737C100.947 630.653 639.227 603.546 827.237 602.173C1033.79 600.68 1154.76 548.339 1228.37 370.023C1262.95 286.371 1248.09 130.182 1272.86 88.1192C1320.35 7.47057 1443.19 207.992 1458.46 239.509C1626.26 586.061 1424.07 957.269 990.237 1054.02C809.857 1094.21 171.857 1161.44 117.787 913.1C115.521 902.408 114.104 891.595 113.547 880.737ZM445.287 641.199C277.817 680.129 43.2869 748.817 128.937 945.972C220.237 1156.16 889.347 1086.04 1051.21 1039.05C1458.44 920.755 1639.43 521.292 1437.73 197.221C1410.6 153.631 1287.96 -5.25026 1265.67 122.692C1236.86 288.278 1250.86 520.17 1010.29 585.431C922.437 609.259 750.547 596.926 643.627 607.671C575.357 614.532 511.337 627.391 445.287 641.199Z" fill="url(#paint1_linear_1_16100)"/>
<path d="M105.277 871.028C102.437 625.121 628.067 593.267 820.637 588.27C1016.2 583.17 1133.29 539.346 1207.64 370.514C1239.72 297.676 1232.96 104.456 1263.26 81.6982C1322.32 37.253 1428.03 211.426 1444.76 245.774C1611.02 587.467 1409.98 952.747 976.997 1045.11C800.617 1082.72 194.067 1149.7 115.847 932.569C108.847 913.091 105.627 892.612 105.257 871.028H105.277ZM448.407 630.678C279.167 670.843 39.4068 734.611 118.267 937.652C197.937 1142.89 820.957 1077.52 975.097 1045.98C1438.68 951.184 1636.49 528.273 1409.39 186.226C1348.97 95.2388 1246.16 -2.2817 1239.68 175.43C1232.15 381.216 1164.21 569.577 878.367 586.294C703.857 596.495 628.007 593.845 448.367 630.678H448.407Z" fill="url(#paint2_linear_1_16100)"/>
<path d="M98.0868 855.847C103.547 681.804 328.767 643.046 482.367 611.131C638.107 578.811 738.847 583.437 886.367 568.438C1135.86 543.057 1203.46 377.652 1211.68 188.936C1214.96 114.536 1216.45 3.66462 1327.49 105.742C1476.11 242.409 1519.02 480.566 1457.99 653.272C1328.22 1020.16 890.987 1070.97 514.467 1070.37C337.957 1070.05 96.8568 1049.8 98.0868 855.847ZM453.477 618.104C301.377 654.084 83.3568 694.369 99.4768 874.799C117.137 1071.87 403.177 1069.11 576.887 1065.93C947.437 1059.2 1314.89 1011.4 1455.54 662.248C1591.44 324.87 1255.86 -55.6244 1221.14 110.428C1192.41 247.941 1220.27 428.259 1055.42 523.363C950.907 583.61 772.417 568.818 644.087 583.998C578.627 591.705 516.937 604.538 453.477 618.139V618.104Z" fill="url(#paint3_linear_1_16100)"/>
<path d="M92.2769 854.924C102.277 678.334 327.777 638.61 485.677 602.777C633.497 569.206 734.787 570.846 875.807 553.508C1125.81 522.836 1180.44 361.764 1186.37 173.307C1189.22 81.5948 1197.28 7.60865 1310.43 112.724C1493.29 282.582 1515.29 577.008 1375.86 774.5C1196.71 1028.23 854.717 1053.99 546.857 1062.66C366.237 1067.72 85.9169 1071.55 92.2669 854.941L92.2769 854.924ZM456.707 610.294C301.117 650.148 81.4669 690.278 93.2469 874.376C106.427 1081.32 401.247 1067.56 577.417 1058.79C881.417 1043.72 1202.9 1026.7 1379.26 772.265C1515.96 575.144 1491.2 280.916 1306.02 111.377C1137.76 -42.6792 1207.86 240.752 1161.08 351.312C1055.04 601.44 819.777 543.212 568.427 586.682C532 593.949 494.76 601.819 456.707 610.294Z" fill="url(#paint4_linear_1_16100)"/>
<path d="M85.8568 837.715C104.407 660.125 330.737 626.441 492.317 589.426C630.207 557.883 736.417 556.537 867.477 536.739C1106.96 500.493 1156.54 349.837 1158.77 166.886C1159.82 82.9754 1161.16 0.324619 1275.96 95.8516C1468.21 255.958 1503.02 552.619 1371.56 752.553C1198.72 1015.37 845.327 1039.18 535.197 1050.8C351.247 1057.75 68.9768 1060.16 85.8568 837.715ZM463.357 596.995C304.597 637.669 82.7868 670.282 85.8068 857.625C89.8068 1103.3 489.697 1052.67 672.097 1039.08C926.097 1020.17 1170.04 998.918 1335.41 803.281C1496.81 612.279 1484.41 339.843 1327.3 148.849C1251.21 56.3428 1155.2 -0.063736 1157.55 155.089C1160.19 332.007 1118.07 496.903 877.347 536.394C781.797 552.067 679.967 554.768 579.107 572.252C541.647 579.709 503.107 587.925 463.357 596.978V596.995Z" fill="url(#paint5_linear_1_16100)"/>
<path d="M79.5869 815.467C108.457 638.144 334.357 612.331 500.197 574.721C640.737 542.867 893.587 534.841 995.127 473.222C1247.58 320.045 1037.4 -36.5863 1224.7 68.2181C1331.7 128.111 1419.75 304.192 1433.76 411.697C1468.68 679.387 1296.86 910.105 997.257 984.592C827.417 1026.83 386.507 1064.28 214.657 1013.83C106.497 982.08 66.5569 913.782 79.5869 815.467ZM471.347 582.169C325.167 618.942 96.2769 645.807 77.2469 819.558C45.9169 1105.63 532.837 1036.96 719.747 1020.5C995.117 996.277 1246.96 954.913 1378.75 711.163C1485.56 513.473 1444.07 221.394 1238.18 80.3002C1085.23 -24.5041 1149.98 186.788 1128.92 276.196C1064.63 548.908 841.687 514.129 588.997 557.417C551.177 564.831 512.057 573.021 471.347 582.169Z" fill="url(#paint6_linear_1_16100)"/>
<path d="M75.0369 802.807C111.037 628.858 313.317 610.441 478.487 569.517C609.957 536.955 868.607 516.01 963.757 463.15C1228.74 316.007 995.857 -73.8426 1209.33 69.4176C1414.73 207.405 1474.86 502.944 1364.59 704.872C1208.32 990.995 846.067 1005.79 530.857 1026.19C338.027 1038.64 32.2269 1047.76 75.0569 802.807H75.0369ZM478.237 570.112C301.237 616.715 69.2369 635.477 70.1069 849.263C71.2269 1108.26 586.107 1020.41 745.327 1003.91C1017.16 975.737 1249.77 932.837 1371.43 688.259C1471.71 486.711 1416.43 203.979 1207.01 71.5148C1060.86 -20.9831 1110.04 158.55 1108.91 218.883C1105.28 415.814 965.297 492.182 762.907 518.547C660.377 531.889 578.557 544.662 478.207 570.112H478.237Z" fill="url(#paint7_linear_1_16100)"/>
<path d="M71.1669 791.881C114.567 617.673 318.727 601.336 485.237 557.737C614.567 523.855 856.677 501.831 951.767 442.3C1182.48 297.935 986.687 -9.97957 1134.58 40.2737C1303.49 97.7159 1407.79 345.781 1404.58 496.316C1399.19 746.245 1194.86 923.422 922.817 971.837C772.817 998.512 368.167 1043.52 223.657 1011.54C93.9569 982.788 46.3969 907.111 71.1769 791.872L71.1669 791.881ZM484.997 558.324C307.857 607.869 98.0169 617.431 65.8569 814.552C42.2969 958.943 196.857 1024.77 340.107 1027.72C462.287 1030.31 600.967 1002.96 725.377 990.4C976.927 965.019 1180.88 949.614 1325.01 737.106C1467.75 526.53 1414.72 225.96 1192.21 74.8288C1022.94 -40.1246 1078.74 148.021 1078.64 211.815C1078.42 403.611 938.757 476.242 744.447 506.474C652.347 520.757 575.087 534.004 484.997 558.255V558.324Z" fill="url(#paint8_linear_1_16100)"/>
<path d="M67.9668 777.037C119.857 603.744 316.527 592.775 492.597 544.533C768.597 468.95 1057.52 500.338 1045.11 171.711C1041.86 84.5808 1016.86 -39.1495 1175.14 72.326C1433.21 254.068 1467.7 638.333 1209.14 840.149C1050.98 963.56 834.537 969.429 637.657 993.231C436.317 1017.53 -13.5432 1086.91 67.9668 777.037ZM492.347 545.119C309.977 598.756 103.747 602.346 61.5368 799.622C30.3368 945.377 177.557 1018.53 325.987 1021.03C448.297 1023.08 584.737 992.29 709.037 978.387C957.397 950.632 1161.65 946.947 1308.83 734.154C1455.52 522.129 1395.12 221.731 1169.13 71.5752C989.857 -47.443 1049 140.28 1049.68 205.705C1051.97 411.05 886.797 465.688 693.857 500.484C624.057 513.076 560.567 525.952 492.347 545.119Z" fill="url(#paint9_linear_1_16100)"/>
<path d="M65.7769 764.929C115.857 620.78 242.437 600.525 392.497 559.609C511.297 527.264 629.957 501.934 755.297 471.634C945.527 425.661 1039.3 324.602 1007.92 149.73C986.557 31.0048 1021.33 -17.695 1150.42 70.4101C1376.3 224.605 1446.28 551.359 1271.97 760.2C1108.3 956.337 865.557 946.49 619.947 980.605C440.577 1005.52 26.6969 1088.17 54.9469 815.864C56.9211 798.66 60.5537 781.629 65.8069 764.946L65.7769 764.929ZM498.777 532.381C305.297 592.766 83.9769 594.777 54.0869 813.335C31.9869 974.512 213.967 1022.4 364.957 1013.08C494.957 1005.01 632.797 973.856 766.707 959.409C992.187 935.02 1173.3 911.633 1297.49 722.382C1441.62 502.763 1365.86 185.674 1116.96 52.6061C940.077 -41.9112 1024.27 156.901 1015.32 235.755C988.037 475.681 704.857 471.073 498.747 532.381H498.777Z" fill="url(#paint10_linear_1_16100)"/>
<path d="M64.5068 747.91C129.317 588.598 253.657 593.362 410.617 548.554C518.657 517.753 795.857 448.764 875.947 398.787C1097.61 260.428 884.857 14.6335 1012.03 20.4761C1151.03 26.871 1301.29 238.586 1336.4 348.628C1401.49 552.705 1305.05 782.811 1085.31 882.376C962.307 938.153 670.807 963.396 521.197 984.419C323.047 1012.29 -20.6532 1047.34 57.7668 768.571C59.6868 761.609 61.9335 754.705 64.5068 747.859V747.91ZM505.397 518.081C407.637 549.823 208.637 587.269 141.097 641.596C-1.60316 756.376 11.0968 972.794 234.017 1004.2C375.467 1024.13 560.857 970.499 706.717 951.607C952.537 919.771 1158.12 924.319 1294.54 699.124C1424.66 484.303 1341.08 192.535 1106.54 56.7313C903.797 -60.6903 993.937 148.142 984.857 229.74C960.487 448.35 699.107 461.89 505.427 518.081H505.397Z" fill="url(#paint11_linear_1_16100)"/>
<path d="M64.8569 721.856C133.597 581.055 225.507 582.548 375.767 542.41C475.767 515.725 781.107 433.238 861.417 381.086C1063.94 249.598 857.227 5.03686 992.417 16.5408C1130.93 28.3037 1278.3 220.505 1318.15 329.936C1413.15 590.678 1249.52 854.527 934.347 913.713C841.717 931.111 744.947 936.962 653.857 950.063C517.367 969.696 173.327 1050.95 72.3269 919.918C30.0969 865.116 37.1469 783.553 64.8569 721.856ZM513.437 501.132C424.517 530.267 207.477 574.945 148.857 617.526C-1.20314 726.62 -5.24315 953.8 216.857 990.926C356.927 1014.33 532.937 961.221 675.547 940.949C911.857 907.404 1114.17 927.642 1264.17 720.018C1420.51 503.565 1335.48 194.356 1090.17 54.151C952.587 -24.53 932.507 36.4506 955.057 144.267C1009.3 403.87 725.557 438.227 513.437 501.132Z" fill="url(#paint12_linear_1_16100)"/>
<path d="M66.4469 700.419C149.657 550.979 259.217 564.295 420.117 518.081C529.577 486.616 780.707 417.108 856.357 350.441C1012.63 212.781 834.357 4.55339 963.787 12.3809C1106.98 21.0111 1261.43 215.137 1303.12 327.752C1376.26 525.166 1291.26 757.377 1075.71 856.641C956.087 911.719 770.337 918.468 637.127 939.586C446.617 969.791 -46.7631 1079.13 46.3869 750.586C51.3292 733.375 58.0425 716.581 66.4469 700.401V700.419ZM519.757 485.131C413.587 520.264 351.767 537.274 247.117 559.609C-9.88315 614.454 -104.883 1073.9 411.827 975.582C561.237 947.102 660.857 923.887 817.967 909.993C1044.74 889.859 1225.42 822.423 1303.97 618.441C1383.73 411.033 1275.39 154.657 1057.32 44.9165C931.057 -18.6099 896.987 17.1879 923.587 129.699C981.957 376.849 725.167 422.114 519.757 485.131Z" fill="url(#paint13_linear_1_16100)"/>
<path d="M67.6869 692.513C155.337 548.062 259.417 559.445 422.507 507.199C543.437 468.492 817.707 393.738 873.367 280.286C932.307 160.181 794.247 -20.6207 955.537 18.2063C1139.61 62.5393 1290.59 265.934 1311.35 421.286C1338.86 626.821 1205.09 819.247 972.927 878.45C855.197 908.474 680.067 917.691 549.107 941.156C382.397 971.068 63.2569 1067.25 34.5769 835.869C28.4669 786.936 42.3969 738.564 67.6869 692.557V692.513ZM521.297 472.626C412.547 512.092 342.477 528.032 239.007 557.65C-25.8631 633.388 -81.5631 1047.42 353.917 982.02C478.297 963.344 597.357 925.389 727.277 908.578C925.667 882.808 1082.67 892.845 1218.76 731.021C1401.71 513.412 1305.09 209.131 1056.76 59.8122C977.987 12.3982 881.757 -23.0371 882.317 83.9162C883.457 294.224 897.767 347.179 660.577 426.412C614.467 441.825 567.847 456.773 521.277 472.626H521.297Z" fill="url(#paint14_linear_1_16100)"/>
<path d="M70.8569 675.952C157.057 545.585 255.317 547.855 402.757 499.449C498.657 468 745.637 390.709 807.867 321.538C929.467 186.33 737.637 -51.5511 961.387 26.1633C1328.79 153.82 1443.16 660.763 1058.5 835.126C934.807 891.222 740.827 889.393 597.497 917.415C432.557 949.692 130.147 1078 41.8569 876.007C12.8569 809.702 32.3569 738.012 70.8569 675.952ZM523.857 457.325C417.857 497.74 331.017 517.106 232.227 550.53C-32.6331 640.103 -100.463 1065.94 393.477 967.366C528.477 940.431 643.907 905.307 786.197 889.436C990.197 866.695 1142.66 847.312 1245.86 667.184C1373.41 444.457 1249.65 154.994 997.577 41.3955C864.127 -18.6875 826.127 21.1578 853.777 133.678C903.067 334.182 700.407 396.698 523.777 457.308L523.857 457.325Z" fill="url(#paint15_linear_1_16100)"/>
<path d="M76.7968 648.431C167.797 528.187 269.457 527.117 411.937 479.876C521.657 443.517 756.697 373.017 807.367 272.502C869.907 148.418 743.577 -36.5604 938.277 23.1774C1288.75 130.692 1433.42 607.015 1089.94 805.37C955.937 882.731 783.377 869.777 628.857 898.187C471.857 927.038 258.627 1023.24 117.967 949.252C-8.65316 882.67 6.19684 747.747 76.7968 648.431ZM528.117 438.589C428.117 477.856 208.357 530.932 141.257 581.168C-25.7432 706.305 -31.3332 960.462 223.627 971.552C366.147 977.731 543.857 914.481 689.447 890.023C918.907 851.524 1123.69 878.484 1243.45 645.005C1356.96 423.486 1227.52 144.25 977.857 38.5477C849.957 -15.6323 805.627 18.871 829.697 130.165C869.287 313.219 692.547 379.438 528.117 438.589Z" fill="url(#paint16_linear_1_16100)"/>
<path d="M87.7868 606.523C183.967 499.846 296.167 495.392 433.257 451.077C543.307 415.486 749.377 351.709 796.017 245.956C845.677 133.47 750.757 -46.8822 952.917 27.0436C1254.63 137.345 1395.86 526.694 1157.86 744.001C1025.28 865.03 850.857 854.044 681.297 881.91C535.047 905.945 194.027 1005.46 66.7868 899.361C-22.7432 824.684 19.7068 685.937 87.7868 606.523ZM536.197 415.106C424.997 458.792 213.557 501.589 135.967 559.877C-17.5632 675.184 -54.9332 910.968 204.857 946.593C345.227 965.821 622.797 883.593 781.907 863.917C927.427 845.931 1047.68 842.721 1157.91 740.506C1386.17 528.791 1269.09 160.897 975.857 36.7611C855.187 -14.2948 803.117 14.3659 818.387 124.461C841.507 291.212 690.357 358.743 536.197 415.106Z" fill="url(#paint17_linear_1_16100)"/>
<path d="M96.0769 583.644C250.487 428.604 597.927 447.616 748.977 268.032C834.067 166.878 710.027 -59.7065 933.977 23.9196C1188.46 118.937 1348.34 417.713 1221.28 643.106C1157.69 755.997 1036.58 821.301 899.857 841.357C785.237 858.212 681.197 868.439 569.287 890.195C383.597 926.226 -47.1431 1028.95 18.8569 721.64C29.7369 671.076 58.3669 623.352 96.0469 583.644H96.0769ZM535.857 396.241C325.257 484.355 74.0069 485.304 16.9869 725.118C-16.8431 867.369 106.927 942.788 256.927 939.059C425.287 934.926 616.207 871.589 791.977 850.212C938.727 832.365 1054.05 827.86 1160.27 719.724C1372.86 503.427 1242.68 146.649 950.697 32.3081C733.587 -52.7333 802.857 117.945 784.857 192.691C759.127 299.35 641.907 354.264 535.857 396.241Z" fill="url(#paint18_linear_1_16100)"/>
<path d="M100.947 573.418C249.947 430.589 582.267 424.168 709.797 256.795C788.367 153.777 660.997 -45.7257 883.547 17.8612C1185.55 104.163 1373.61 466.067 1157.34 702.335C1022.51 849.582 807.417 834.358 608.547 870.061C465.827 895.701 167.077 995.716 59.4869 889.048C-33.8131 796.55 16.6969 659.607 100.947 573.418ZM527.607 380.741C318.937 477.623 54.0969 491.552 11.2469 738.616C-14.0831 884.551 119.117 945.739 267.187 935.711C442.617 923.801 629.587 857.22 815.337 835.152C965.607 817.323 1082.19 801.952 1176.1 678.636C1356.3 442.084 1175.88 85.228 868.287 14.9787C644.767 -36.0599 836.907 171.357 657.907 308.308C620.717 336.788 572.277 360.745 527.607 380.741Z" fill="url(#paint19_linear_1_16100)"/>
<path d="M111.347 546.189C282.237 397.087 726.687 386.73 713.797 127.628C708.907 30.1072 738.797 -16.9357 862.317 13.1058C1152.22 83.5882 1342.91 426.489 1174.82 662.032C1070.06 808.744 933.397 807.588 763.157 832.434C593.947 857.185 236.857 968.902 86.4268 894.761C-59.9232 822.621 13.1368 635.27 111.347 546.189ZM524.187 359.39C317.707 462.089 38.8568 483.043 6.11684 734.654C-14.6532 894.208 152.457 933.812 301.137 917.38C450.857 900.853 594.967 856.201 744.227 832.857C882.437 811.281 1005.47 818.263 1115.72 723.953C1336.56 535.005 1234.4 201.122 984.487 63.618C899.607 16.8945 733.237 -48.9621 718.417 82.2591C704.237 207.267 712.017 253.239 579.137 330.384C561.557 340.559 543.057 350.234 524.187 359.407V359.39Z" fill="url(#paint20_linear_1_16100)"/>
<path d="M118.367 528.541C293.327 383.287 694.357 370.212 674.857 113.431C659.857 -83.8709 910.697 22.1935 1009.08 89.6639C1194.22 216.613 1292.13 452.302 1172.76 639.87C1119.11 724.082 1023.12 782.931 916.517 801.02C822.857 816.865 734.317 822.828 639.067 842.013C500.667 869.94 178.477 967.202 53.9469 868.025C-57.4731 779.298 23.5169 609.863 118.367 528.541ZM513.367 340.792C311.857 451.828 23.4969 481.075 2.41686 736.182C-15.0331 947.387 262.547 918.778 417.417 888.133C580.517 855.804 706.287 823.761 877.217 803.799C1087.86 779.143 1218.54 647.723 1222.37 463.668C1226.71 256.614 1039.24 34.3102 799.367 4.54484C596.547 -20.5689 753.237 157.177 597.367 285.887C572.367 306.6 542.877 324.723 513.367 340.801V340.792Z" fill="url(#paint21_linear_1_16100)"/>
</g>
<defs>
<linearGradient id="paint0_linear_1_16100" x1="1310.08" y1="928.19" x2="623.108" y2="297.504" gradientUnits="userSpaceOnUse">
<stop stop-color="#FFDD75"/>
<stop offset="0.2" stop-color="#C47F00"/>
<stop offset="0.26" stop-color="#C68204"/>
<stop offset="0.32" stop-color="#CC8B0F"/>
<stop offset="0.37" stop-color="#D69B23"/>
<stop offset="0.43" stop-color="#E3B13E"/>
<stop offset="0.48" stop-color="#F5CD61"/>
<stop offset="0.51" stop-color="#FFDD75"/>
<stop offset="0.52" stop-color="#FFF0A0"/>
<stop offset="0.59" stop-color="#FFDD75"/>
<stop offset="0.84" stop-color="#C47F00"/>
<stop offset="0.85" stop-color="#C88507"/>
<stop offset="0.95" stop-color="#EFC456"/>
<stop offset="1" stop-color="#FFDD75"/>
</linearGradient>
<linearGradient id="paint1_linear_1_16100" x1="1305.5" y1="919.04" x2="604.313" y2="275.299" gradientUnits="userSpaceOnUse">
<stop stop-color="#FFDD75"/>
<stop offset="0.2" stop-color="#C47F00"/>
<stop offset="0.26" stop-color="#C68204"/>
<stop offset="0.32" stop-color="#CC8B0F"/>
<stop offset="0.37" stop-color="#D69B23"/>
<stop offset="0.43" stop-color="#E3B13E"/>
<stop offset="0.48" stop-color="#F5CD61"/>
<stop offset="0.51" stop-color="#FFDD75"/>
<stop offset="0.52" stop-color="#FFF0A0"/>
<stop offset="0.59" stop-color="#FFDD75"/>
<stop offset="0.84" stop-color="#C47F00"/>
<stop offset="0.85" stop-color="#C88507"/>
<stop offset="0.95" stop-color="#EFC456"/>
<stop offset="1" stop-color="#FFDD75"/>
</linearGradient>
<linearGradient id="paint2_linear_1_16100" x1="1289.62" y1="917.569" x2="590.144" y2="275.404" gradientUnits="userSpaceOnUse">
<stop stop-color="#FFDD75"/>
<stop offset="0.2" stop-color="#C47F00"/>
<stop offset="0.26" stop-color="#C68204"/>
<stop offset="0.32" stop-color="#CC8B0F"/>
<stop offset="0.37" stop-color="#D69B23"/>
<stop offset="0.43" stop-color="#E3B13E"/>
<stop offset="0.48" stop-color="#F5CD61"/>
<stop offset="0.51" stop-color="#FFDD75"/>
<stop offset="0.52" stop-color="#FFF0A0"/>
<stop offset="0.59" stop-color="#FFDD75"/>
<stop offset="0.84" stop-color="#C47F00"/>
<stop offset="0.85" stop-color="#C88507"/>
<stop offset="0.95" stop-color="#EFC456"/>
<stop offset="1" stop-color="#FFDD75"/>
</linearGradient>
<linearGradient id="paint3_linear_1_16100" x1="1277.44" y1="912.656" x2="577.572" y2="270.129" gradientUnits="userSpaceOnUse">
<stop stop-color="#FFDD75"/>
<stop offset="0.2" stop-color="#C47F00"/>
<stop offset="0.26" stop-color="#C68204"/>
<stop offset="0.32" stop-color="#CC8B0F"/>
<stop offset="0.37" stop-color="#D69B23"/>
<stop offset="0.43" stop-color="#E3B13E"/>
<stop offset="0.48" stop-color="#F5CD61"/>
<stop offset="0.51" stop-color="#FFDD75"/>
<stop offset="0.52" stop-color="#FFF0A0"/>
<stop offset="0.59" stop-color="#FFDD75"/>
<stop offset="0.84" stop-color="#C47F00"/>
<stop offset="0.85" stop-color="#C88507"/>
<stop offset="0.95" stop-color="#EFC456"/>
<stop offset="1" stop-color="#FFDD75"/>
</linearGradient>
<linearGradient id="paint4_linear_1_16100" x1="1258.21" y1="911.82" x2="566.156" y2="276.463" gradientUnits="userSpaceOnUse">
<stop stop-color="#FFDD75"/>
<stop offset="0.2" stop-color="#C47F00"/>
<stop offset="0.26" stop-color="#C68204"/>
<stop offset="0.32" stop-color="#CC8B0F"/>
<stop offset="0.37" stop-color="#D69B23"/>
<stop offset="0.43" stop-color="#E3B13E"/>
<stop offset="0.48" stop-color="#F5CD61"/>
<stop offset="0.51" stop-color="#FFDD75"/>
<stop offset="0.52" stop-color="#FFF0A0"/>
<stop offset="0.59" stop-color="#FFDD75"/>
<stop offset="0.84" stop-color="#C47F00"/>
<stop offset="0.85" stop-color="#C88507"/>
<stop offset="0.95" stop-color="#EFC456"/>
<stop offset="1" stop-color="#FFDD75"/>
</linearGradient>
<linearGradient id="paint5_linear_1_16100" x1="1243.17" y1="904.528" x2="553.617" y2="271.471" gradientUnits="userSpaceOnUse">
<stop stop-color="#FFDD75"/>
<stop offset="0.2" stop-color="#C47F00"/>
<stop offset="0.26" stop-color="#C68204"/>
<stop offset="0.32" stop-color="#CC8B0F"/>
<stop offset="0.37" stop-color="#D69B23"/>
<stop offset="0.43" stop-color="#E3B13E"/>
<stop offset="0.48" stop-color="#F5CD61"/>
<stop offset="0.51" stop-color="#FFDD75"/>
<stop offset="0.52" stop-color="#FFF0A0"/>
<stop offset="0.59" stop-color="#FFDD75"/>
<stop offset="0.84" stop-color="#C47F00"/>
<stop offset="0.85" stop-color="#C88507"/>
<stop offset="0.95" stop-color="#EFC456"/>
<stop offset="1" stop-color="#FFDD75"/>
</linearGradient>
<linearGradient id="paint6_linear_1_16100" x1="1229.62" y1="897.368" x2="539.738" y2="264.006" gradientUnits="userSpaceOnUse">
<stop stop-color="#FFDD75"/>
<stop offset="0.2" stop-color="#C47F00"/>
<stop offset="0.26" stop-color="#C68204"/>
<stop offset="0.32" stop-color="#CC8B0F"/>
<stop offset="0.37" stop-color="#D69B23"/>
<stop offset="0.43" stop-color="#E3B13E"/>
<stop offset="0.48" stop-color="#F5CD61"/>
<stop offset="0.51" stop-color="#FFDD75"/>
<stop offset="0.52" stop-color="#FFF0A0"/>
<stop offset="0.59" stop-color="#FFDD75"/>
<stop offset="0.84" stop-color="#C47F00"/>
<stop offset="0.85" stop-color="#C88507"/>
<stop offset="0.95" stop-color="#EFC456"/>
<stop offset="1" stop-color="#FFDD75"/>
</linearGradient>
<linearGradient id="paint7_linear_1_16100" x1="1212.78" y1="891.92" x2="528.312" y2="263.528" gradientUnits="userSpaceOnUse">
<stop stop-color="#FFDD75"/>
<stop offset="0.2" stop-color="#C47F00"/>
<stop offset="0.26" stop-color="#C68204"/>
<stop offset="0.32" stop-color="#CC8B0F"/>
<stop offset="0.37" stop-color="#D69B23"/>
<stop offset="0.43" stop-color="#E3B13E"/>
<stop offset="0.48" stop-color="#F5CD61"/>
<stop offset="0.51" stop-color="#FFDD75"/>
<stop offset="0.52" stop-color="#FFF0A0"/>
<stop offset="0.59" stop-color="#FFDD75"/>
<stop offset="0.84" stop-color="#C47F00"/>
<stop offset="0.85" stop-color="#C88507"/>
<stop offset="0.95" stop-color="#EFC456"/>
<stop offset="1" stop-color="#FFDD75"/>
</linearGradient>
<linearGradient id="paint8_linear_1_16100" x1="1195.93" y1="886.879" x2="518.191" y2="264.672" gradientUnits="userSpaceOnUse">
<stop stop-color="#FFDD75"/>
<stop offset="0.2" stop-color="#C47F00"/>
<stop offset="0.26" stop-color="#C68204"/>
<stop offset="0.32" stop-color="#CC8B0F"/>
<stop offset="0.37" stop-color="#D69B23"/>
<stop offset="0.43" stop-color="#E3B13E"/>
<stop offset="0.48" stop-color="#F5CD61"/>
<stop offset="0.51" stop-color="#FFDD75"/>
<stop offset="0.52" stop-color="#FFF0A0"/>
<stop offset="0.59" stop-color="#FFDD75"/>
<stop offset="0.84" stop-color="#C47F00"/>
<stop offset="0.85" stop-color="#C88507"/>
<stop offset="0.95" stop-color="#EFC456"/>
<stop offset="1" stop-color="#FFDD75"/>
</linearGradient>
<linearGradient id="paint9_linear_1_16100" x1="1179.29" y1="883.241" x2="505.822" y2="264.956" gradientUnits="userSpaceOnUse">
<stop stop-color="#FFDD75"/>
<stop offset="0.2" stop-color="#C47F00"/>
<stop offset="0.26" stop-color="#C68204"/>
<stop offset="0.32" stop-color="#CC8B0F"/>
<stop offset="0.37" stop-color="#D69B23"/>
<stop offset="0.43" stop-color="#E3B13E"/>
<stop offset="0.48" stop-color="#F5CD61"/>
<stop offset="0.51" stop-color="#FFDD75"/>
<stop offset="0.52" stop-color="#FFF0A0"/>
<stop offset="0.59" stop-color="#FFDD75"/>
<stop offset="0.84" stop-color="#C47F00"/>
<stop offset="0.85" stop-color="#C88507"/>
<stop offset="0.95" stop-color="#EFC456"/>
<stop offset="1" stop-color="#FFDD75"/>
</linearGradient>
<linearGradient id="paint10_linear_1_16100" x1="1162.27" y1="880.648" x2="493.594" y2="266.755" gradientUnits="userSpaceOnUse">
<stop stop-color="#FFDD75"/>
<stop offset="0.2" stop-color="#C47F00"/>
<stop offset="0.26" stop-color="#C68204"/>
<stop offset="0.32" stop-color="#CC8B0F"/>
<stop offset="0.37" stop-color="#D69B23"/>
<stop offset="0.43" stop-color="#E3B13E"/>
<stop offset="0.48" stop-color="#F5CD61"/>
<stop offset="0.51" stop-color="#FFDD75"/>
<stop offset="0.52" stop-color="#FFF0A0"/>
<stop offset="0.59" stop-color="#FFDD75"/>
<stop offset="0.84" stop-color="#C47F00"/>
<stop offset="0.85" stop-color="#C88507"/>
<stop offset="0.95" stop-color="#EFC456"/>
<stop offset="1" stop-color="#FFDD75"/>
</linearGradient>
<linearGradient id="paint11_linear_1_16100" x1="1146.65" y1="875.38" x2="482.072" y2="265.255" gradientUnits="userSpaceOnUse">
<stop stop-color="#FFDD75"/>
<stop offset="0.2" stop-color="#C47F00"/>
<stop offset="0.26" stop-color="#C68204"/>
<stop offset="0.32" stop-color="#CC8B0F"/>
<stop offset="0.37" stop-color="#D69B23"/>
<stop offset="0.43" stop-color="#E3B13E"/>
<stop offset="0.48" stop-color="#F5CD61"/>
<stop offset="0.51" stop-color="#FFDD75"/>
<stop offset="0.52" stop-color="#FFF0A0"/>
<stop offset="0.59" stop-color="#FFDD75"/>
<stop offset="0.84" stop-color="#C47F00"/>
<stop offset="0.85" stop-color="#C88507"/>
<stop offset="0.95" stop-color="#EFC456"/>
<stop offset="1" stop-color="#FFDD75"/>
</linearGradient>
<linearGradient id="paint12_linear_1_16100" x1="1133.98" y1="867.217" x2="470.994" y2="258.548" gradientUnits="userSpaceOnUse">
<stop stop-color="#FFDD75"/>
<stop offset="0.2" stop-color="#C47F00"/>
<stop offset="0.26" stop-color="#C68204"/>
<stop offset="0.32" stop-color="#CC8B0F"/>
<stop offset="0.37" stop-color="#D69B23"/>
<stop offset="0.43" stop-color="#E3B13E"/>
<stop offset="0.48" stop-color="#F5CD61"/>
<stop offset="0.51" stop-color="#FFDD75"/>
<stop offset="0.52" stop-color="#FFF0A0"/>
<stop offset="0.59" stop-color="#FFDD75"/>
<stop offset="0.84" stop-color="#C47F00"/>
<stop offset="0.85" stop-color="#C88507"/>
<stop offset="0.95" stop-color="#EFC456"/>
<stop offset="1" stop-color="#FFDD75"/>
</linearGradient>
<linearGradient id="paint13_linear_1_16100" x1="1121.03" y1="862.541" x2="460.896" y2="256.497" gradientUnits="userSpaceOnUse">
<stop stop-color="#FFDD75"/>
<stop offset="0.2" stop-color="#C47F00"/>
<stop offset="0.26" stop-color="#C68204"/>
<stop offset="0.32" stop-color="#CC8B0F"/>
<stop offset="0.37" stop-color="#D69B23"/>
<stop offset="0.43" stop-color="#E3B13E"/>
<stop offset="0.48" stop-color="#F5CD61"/>
<stop offset="0.51" stop-color="#FFDD75"/>
<stop offset="0.52" stop-color="#FFF0A0"/>
<stop offset="0.59" stop-color="#FFDD75"/>
<stop offset="0.84" stop-color="#C47F00"/>
<stop offset="0.85" stop-color="#C88507"/>
<stop offset="0.95" stop-color="#EFC456"/>
<stop offset="1" stop-color="#FFDD75"/>
</linearGradient>
<linearGradient id="paint14_linear_1_16100" x1="1099.74" y1="861.463" x2="449.531" y2="264.527" gradientUnits="userSpaceOnUse">
<stop stop-color="#FFDD75"/>
<stop offset="0.2" stop-color="#C47F00"/>
<stop offset="0.26" stop-color="#C68204"/>
<stop offset="0.32" stop-color="#CC8B0F"/>
<stop offset="0.37" stop-color="#D69B23"/>
<stop offset="0.43" stop-color="#E3B13E"/>
<stop offset="0.48" stop-color="#F5CD61"/>
<stop offset="0.51" stop-color="#FFDD75"/>
<stop offset="0.52" stop-color="#FFF0A0"/>
<stop offset="0.59" stop-color="#FFDD75"/>
<stop offset="0.84" stop-color="#C47F00"/>
<stop offset="0.85" stop-color="#C88507"/>
<stop offset="0.95" stop-color="#EFC456"/>
<stop offset="1" stop-color="#FFDD75"/>
</linearGradient>
<linearGradient id="paint15_linear_1_16100" x1="1087.43" y1="857.97" x2="441.585" y2="265.038" gradientUnits="userSpaceOnUse">
<stop stop-color="#FFDD75"/>
<stop offset="0.2" stop-color="#C47F00"/>
<stop offset="0.26" stop-color="#C68204"/>
<stop offset="0.32" stop-color="#CC8B0F"/>
<stop offset="0.37" stop-color="#D69B23"/>
<stop offset="0.43" stop-color="#E3B13E"/>
<stop offset="0.48" stop-color="#F5CD61"/>
<stop offset="0.51" stop-color="#FFDD75"/>
<stop offset="0.52" stop-color="#FFF0A0"/>
<stop offset="0.59" stop-color="#FFDD75"/>
<stop offset="0.84" stop-color="#C47F00"/>
<stop offset="0.85" stop-color="#C88507"/>
<stop offset="0.95" stop-color="#EFC456"/>
<stop offset="1" stop-color="#FFDD75"/>
</linearGradient>
<linearGradient id="paint16_linear_1_16100" x1="1077.69" y1="849.557" x2="431.808" y2="256.594" gradientUnits="userSpaceOnUse">
<stop stop-color="#FFDD75"/>
<stop offset="0.2" stop-color="#C47F00"/>
<stop offset="0.26" stop-color="#C68204"/>
<stop offset="0.32" stop-color="#CC8B0F"/>
<stop offset="0.37" stop-color="#D69B23"/>
<stop offset="0.43" stop-color="#E3B13E"/>
<stop offset="0.48" stop-color="#F5CD61"/>
<stop offset="0.51" stop-color="#FFDD75"/>
<stop offset="0.52" stop-color="#FFF0A0"/>
<stop offset="0.59" stop-color="#FFDD75"/>
<stop offset="0.84" stop-color="#C47F00"/>
<stop offset="0.85" stop-color="#C88507"/>
<stop offset="0.95" stop-color="#EFC456"/>
<stop offset="1" stop-color="#FFDD75"/>
</linearGradient>
<linearGradient id="paint17_linear_1_16100" x1="1072.6" y1="839.193" x2="421.079" y2="241.056" gradientUnits="userSpaceOnUse">
<stop stop-color="#FFDD75"/>
<stop offset="0.2" stop-color="#C47F00"/>
<stop offset="0.26" stop-color="#C68204"/>
<stop offset="0.32" stop-color="#CC8B0F"/>
<stop offset="0.37" stop-color="#D69B23"/>
<stop offset="0.43" stop-color="#E3B13E"/>
<stop offset="0.48" stop-color="#F5CD61"/>
<stop offset="0.51" stop-color="#FFDD75"/>
<stop offset="0.52" stop-color="#FFF0A0"/>
<stop offset="0.59" stop-color="#FFDD75"/>
<stop offset="0.84" stop-color="#C47F00"/>
<stop offset="0.85" stop-color="#C88507"/>
<stop offset="0.95" stop-color="#EFC456"/>
<stop offset="1" stop-color="#FFDD75"/>
</linearGradient>
<linearGradient id="paint18_linear_1_16100" x1="1059.53" y1="832.728" x2="411.237" y2="237.546" gradientUnits="userSpaceOnUse">
<stop stop-color="#FFDD75"/>
<stop offset="0.2" stop-color="#C47F00"/>
<stop offset="0.26" stop-color="#C68204"/>
<stop offset="0.32" stop-color="#CC8B0F"/>
<stop offset="0.37" stop-color="#D69B23"/>
<stop offset="0.43" stop-color="#E3B13E"/>
<stop offset="0.48" stop-color="#F5CD61"/>
<stop offset="0.51" stop-color="#FFDD75"/>
<stop offset="0.52" stop-color="#FFF0A0"/>
<stop offset="0.59" stop-color="#FFDD75"/>
<stop offset="0.84" stop-color="#C47F00"/>
<stop offset="0.85" stop-color="#C88507"/>
<stop offset="0.95" stop-color="#EFC456"/>
<stop offset="1" stop-color="#FFDD75"/>
</linearGradient>
<linearGradient id="paint19_linear_1_16100" x1="1042.05" y1="827.995" x2="402.876" y2="241.191" gradientUnits="userSpaceOnUse">
<stop stop-color="#FFDD75"/>
<stop offset="0.2" stop-color="#C47F00"/>
<stop offset="0.26" stop-color="#C68204"/>
<stop offset="0.32" stop-color="#CC8B0F"/>
<stop offset="0.37" stop-color="#D69B23"/>
<stop offset="0.43" stop-color="#E3B13E"/>
<stop offset="0.48" stop-color="#F5CD61"/>
<stop offset="0.51" stop-color="#FFDD75"/>
<stop offset="0.52" stop-color="#FFF0A0"/>
<stop offset="0.59" stop-color="#FFDD75"/>
<stop offset="0.84" stop-color="#C47F00"/>
<stop offset="0.85" stop-color="#C88507"/>
<stop offset="0.95" stop-color="#EFC456"/>
<stop offset="1" stop-color="#FFDD75"/>
</linearGradient>
<linearGradient id="paint20_linear_1_16100" x1="1034.56" y1="819.382" x2="395.011" y2="232.234" gradientUnits="userSpaceOnUse">
<stop stop-color="#FFDD75"/>
<stop offset="0.2" stop-color="#C47F00"/>
<stop offset="0.26" stop-color="#C68204"/>
<stop offset="0.32" stop-color="#CC8B0F"/>
<stop offset="0.37" stop-color="#D69B23"/>
<stop offset="0.43" stop-color="#E3B13E"/>
<stop offset="0.48" stop-color="#F5CD61"/>
<stop offset="0.51" stop-color="#FFDD75"/>
<stop offset="0.52" stop-color="#FFF0A0"/>
<stop offset="0.59" stop-color="#FFDD75"/>
<stop offset="0.84" stop-color="#C47F00"/>
<stop offset="0.85" stop-color="#C88507"/>
<stop offset="0.95" stop-color="#EFC456"/>
<stop offset="1" stop-color="#FFDD75"/>
</linearGradient>
<linearGradient id="paint21_linear_1_16100" x1="1021.34" y1="811.938" x2="386.566" y2="229.176" gradientUnits="userSpaceOnUse">
<stop stop-color="#FFDD75"/>
<stop offset="0.2" stop-color="#C47F00"/>
<stop offset="0.26" stop-color="#C68204"/>
<stop offset="0.32" stop-color="#CC8B0F"/>
<stop offset="0.37" stop-color="#D69B23"/>
<stop offset="0.43" stop-color="#E3B13E"/>
<stop offset="0.48" stop-color="#F5CD61"/>
<stop offset="0.51" stop-color="#FFDD75"/>
<stop offset="0.52" stop-color="#FFF0A0"/>
<stop offset="0.59" stop-color="#FFDD75"/>
<stop offset="0.84" stop-color="#C47F00"/>
<stop offset="0.85" stop-color="#C88507"/>
<stop offset="0.95" stop-color="#EFC456"/>
<stop offset="1" stop-color="#FFDD75"/>
</linearGradient>
</defs>
</svg>
